/* XPM */
static char *cc799b388f2942d5eea687cf29fcfada2HDhb4mx8YmsZw7v[] = {
/* columns rows colors chars-per-pixel */
"53 64 255 2 ",
"   c None",
".  c #030F37",
"X  c #05123C",
"o  c #081438",
"O  c #0C1634",
"+  c #040A1B",
"@  c #04154B",
"#  c #071846",
"$  c #111E4B",
"%  c #041957",
"&  c #0C194F",
"*  c #17254A",
"=  c #0C245A",
"-  c #162756",
";  c #0E214C",
":  c #29355C",
">  c #212C56",
",  c #061C63",
"<  c #0A1E72",
"1  c #0C2767",
"2  c #152968",
"3  c #1E366A",
"4  c #082777",
"5  c #102B73",
"6  c #153377",
"7  c #0D327F",
"8  c #253567",
"9  c #233974",
"0  c #313B6A",
"q  c #3C4B7A",
"w  c #314975",
"e  c #465476",
"r  c #062888",
"t  c #17388A",
"y  c #09379B",
"u  c #173A96",
"i  c #0F308F",
"p  c #233E99",
"a  c #263A88",
"s  c #0835A6",
"d  c #173CA7",
"f  c #0939B9",
"g  c #143CB6",
"h  c #072EA3",
"j  c #1C439A",
"k  c #164D9A",
"l  c #2A478A",
"z  c #354A82",
"x  c #284899",
"c  c #364A95",
"v  c #3A5896",
"b  c #315590",
"n  c #1944A8",
"m  c #0C44B5",
"M  c #1846B8",
"N  c #1755B5",
"B  c #0E48B1",
"V  c #2748A9",
"C  c #2E54A7",
"Z  c #3758AA",
"A  c #264AB6",
"S  c #2754B9",
"D  c #375AB8",
"F  c #304DBF",
"G  c #176AB9",
"H  c #366AB3",
"J  c #3E629B",
"K  c #465999",
"L  c #4E6898",
"P  c #63709B",
"I  c #425AB1",
"U  c #4A69B9",
"Y  c #5978BE",
"T  c #5069AB",
"R  c #687DAB",
"E  c #083ACA",
"W  c #183CC7",
"Q  c #0C44C7",
"!  c #1648C7",
"~  c #1756C9",
"^  c #0B48D8",
"/  c #154BD7",
"(  c #0D56D8",
")  c #1656D8",
"_  c #0E55C9",
"`  c #214AC0",
"'  c #2755C8",
"]  c #2758D7",
"[  c #375DCE",
"{  c #0B68D9",
"}  c #1864DB",
"|  c #116CD6",
" . c #3967CA",
".. c #296ADA",
"X. c #3666D4",
"o. c #2676DD",
"O. c #2D6BD0",
"+. c #094DE9",
"@. c #134DE5",
"#. c #0B56E8",
"$. c #1A55EC",
"%. c #1557E7",
"&. c #0B54F3",
"*. c #0C5BF4",
"=. c #0B5CFB",
"-. c #0658F8",
";. c #165AF7",
":. c #074BF3",
">. c #235BE9",
",. c #1766E9",
"<. c #1676E9",
"1. c #0C63F5",
"2. c #0463FC",
"3. c #0C63FC",
"4. c #056BFD",
"5. c #0B6CFB",
"6. c #0E6DF7",
"7. c #146BF4",
"8. c #1568F9",
"9. c #0473FC",
"0. c #0B74FB",
"q. c #0B7BFC",
"w. c #0877F9",
"e. c #1474F4",
"r. c #1372FA",
"t. c #1A75FB",
"y. c #1879F7",
"u. c #0C65E8",
"i. c #2968E9",
"p. c #2775E9",
"a. c #3575E7",
"s. c #2466F3",
"d. c #2678F8",
"f. c #3779F6",
"g. c #3668EE",
"h. c #5877C9",
"j. c #4975D5",
"k. c #466DD1",
"l. c #637ACF",
"z. c #4A7AE8",
"x. c #7087B5",
"c. c #5A80B8",
"v. c #1383DB",
"b. c #3886D9",
"n. c #1285EC",
"m. c #0584FC",
"M. c #0B83FC",
"N. c #048CFD",
"B. c #0B8BFC",
"V. c #0B8BF5",
"C. c #1384FB",
"Z. c #138BFB",
"A. c #1B8BFA",
"S. c #1A85F7",
"D. c #0493FD",
"F. c #0B93FC",
"G. c #049BFD",
"H. c #0C9BFB",
"J. c #0B99F5",
"K. c #1495FB",
"L. c #1C94FB",
"P. c #129AFB",
"I. c #1999F6",
"U. c #0E92EA",
"Y. c #2989E8",
"T. c #2588FA",
"R. c #3789F9",
"E. c #2B9CFB",
"W. c #2597F9",
"Q. c #399AFA",
"!. c #3099E8",
"~. c #04A4FD",
"^. c #0BA3FB",
"/. c #05ABFC",
"(. c #0BACFB",
"). c #13ABFB",
"_. c #19A8F9",
"`. c #04B4FD",
"'. c #0BB3FC",
"]. c #04BBFD",
"[. c #0ABBFC",
"{. c #15B7FA",
"}. c #1EABEC",
"|. c #27A6FA",
" X c #35A9FA",
".X c #27B7FB",
"XX c #3BB2FA",
"oX c #2BA3EE",
"OX c #25A0DF",
"+X c #548ED2",
"@X c #6A87C9",
"#X c #7394CC",
"$X c #7898DA",
"%X c #6B8DD3",
"&X c #7CA1DB",
"*X c #4A87E7",
"=X c #468AF4",
"-X c #598DF6",
";X c #4798F8",
":X c #599BF8",
">X c #4F90E8",
",X c #678AE3",
"<X c #7699E8",
"1X c #6798F4",
"2X c #47A7F8",
"3X c #59A8F9",
"4X c #45B7FB",
"5X c #5AB7FB",
"6X c #58B1EC",
"7X c #7DA5E9",
"8X c #67A9F6",
"9X c #7AA5F5",
"0X c #6BB7FA",
"qX c #76B4FA",
"wX c #6AA5EA",
"eX c #04C3FD",
"rX c #0BC4FD",
"tX c #03CBFD",
"yX c #0BCBFB",
"uX c #15C8FB",
"iX c #09D5FD",
"pX c #17D9FC",
"aX c #28C6FA",
"sX c #28D6FA",
"dX c #3BD8F8",
"fX c #3BC6F7",
"gX c #0EE9FB",
"hX c #2EE6FB",
"jX c #4CCFF6",
"kX c #72C5F8",
"lX c #6BCFFA",
"zX c #4EE8FB",
"xX c #70F6FB",
"cX c #90A0BE",
"vX c #869AC6",
"bX c #849ED9",
"nX c #8AA4CA",
"mX c #93A7CC",
"MX c #87A3D7",
"NX c #92B1DB",
"BX c #93ABD8",
"VX c #87A8E8",
"CX c #97B6EA",
"ZX c #8AB6F5",
"AX c #9AB8F4",
"SX c #8CADEC",
"DX c #A3B7EC",
"FX c #A6BDDF",
"GX c #A9C2DE",
"HX c #9BC3F7",
"JX c #8BC9F2",
"KX c #A6C9F7",
"LX c #BAD5F5",
"PX c #B2CCEE",
"IX c #C6DDF8",
/* pixels */
"                                                                                                          ",
"                                                                                                          ",
"                                                                                                          ",
"                                            SX                                                            ",
"                                    AXKXSXZX9X9XKXLX                                                      ",
"                                vX@X<XAXAXKXKX9XZXHXSXAX      [ z.a.                                      ",
"                              MXVXVX$X&X&X&XVX$X,XVX9X1XDXDXU W ] N t                                     ",
"                            U $XDXCXSX@X#X&XNX%X%XZXSXVXAXLXbXV D x z L                                   ",
"                          p p T GXBXNXNX#XMX<X$XJXKXPXKXIXLXCX%XJ b L x.cX                                ",
"                          u 4 % z mXnX#X&X$X%X@X#XMXNXCXHXGXKXHXc.v b L P x.                              ",
"                  #XmXIX@Xi < < % R MXL L @XY T Y Y T Y $XCXLXKXJXc.L b b L x.                            ",
"                L vXBXR I V V < 1 6 &X#X@XVX,X*X*Xb.O.C  .%XKXKXHX7X+X+XG l q PX                          ",
"              v l R nXC N a.[ i 4 4 @X7X9X9X:X;X X X_.I.S.Q.JXqXkX0XwX2X!.k x.IXIX                        ",
"              c x #XBX+X!.!.| | B r C 8X;X:X=XQ. X^.^.P.L.E.0X5X4X XkX5XE.6XGXPXNXGX                      ",
"            K I D <XCX+XW.}._.'.}.OXv.!.2XQ.R.2XQ.W._.L.E.;X0X4XXXE.2X4X}.jXCXIXLXmXnX                    ",
"            b C  .<XMX8X_.[.{.rXpXuX{.^.{.P.R.;X3X;XE.|.4X2X5X2X2X|..X|..XdXJXcXcXvX&X7X                  ",
"          x V D  .<XZX0XoX_.uXeXgXeX`.]./.).I.;X:X:X0XXXE.T.3X;X=XT.aXI.'.[.}.H R vXMX<X                  ",
"        p V ' D C ' R.5X0X0XaXiXiXyXeX`.(.}._.Y.=Xf.T.A.r.( z.*X*XW.{.E._.~.J.G q P vX$X<X                ",
"        x ` ] D D G T.2X8XkXjXsXtXeX].J.~.G./.^.y.$.s.i.Q f z.,X:XQ.)._.|._.H.U.b q e P h.                ",
"      D A ] >.l.j.a.|.W.Q. XXXXX'.eXeX`.rX[.(.J.y.) ' F n ! a.1X=XA.H._.|.|.P.V.G q : : I z.              ",
"      V d ` X.l.D o. XK.W.E. XjX.X/.`./.J.J.6.7.s.! M d M #.C.Q.W.Z.F.E.0X3XQ.T.Y.b - - l O.              ",
"    c p t p k.l.C O.XXE.W.W.V.)._..X'.P.C.2.&.$.>.' ' ~ } M.H.|.W.B.I.;X8X=X3XR.T.X.K - j  .              ",
"    V p r p j.h.D  ..X XE.V.~./._..X_.|.T.:.;.@.Q s M ) S.F.D.W.E.A.W.:Xz.-X8X8Xp.O.Z z j  .              ",
"    A d i I I k.h.*X.XXXK.N.'.).jX.XH.S.2X,.=.&.Q m { J.m.D.G.Z.E.T.R.:Xf.=X1XqX:Xi.A a D X.              ",
"    d A A D C Z U >X.XoX^.`.tXn.5XfXD.C.2XR.3.2.U.'.'.rXG.~.~.B.W.T.R.=Xf.d.f.f.3XR.s.O.m                 ",
"      ` A D V D k.*XY.v.eXtX[.w.Y.4XB.9.e.7.S. XaXrX`.`.D.H.F.N.A.T.R.R.R.2.3.g.-X3Xy.T.p.                ",
"      A d F V ' j. .N U.tXtX~.-.7.W.T.d.r.y.A.jXzX.X~.D.N.m.q.C.M.C.r.r.r.t.d.a.,X,Xf.t.T.                ",
"      g d ' n A  .u n J.yXpX'.*.y.r.1.d.7.S.|.zXjX|.H.B.0.q.q.q.M.C.0.2.-.=.e.1X$X$Xj.,.d.                ",
"    E E / ' g [ n r y J.yXsXaX<.r.0.d.7.6.A.jXlXY.T.Z.L.Z.q.M.K.N.m.m.9.w.M.T.3XZXLXCXX.T.R.              ",
"    @.:.@./ / M r r N {.iXuXW.I.S.5.3.S..XfXlXwX<.e.4.9.q.q.q.M.M.m.N.H.~.N.t.qXZXKXIXVX..Q.              ",
"    %.-.:.$.$.f h f n.uXyXJ.Z.(.I.!.3.Z.dXzXxX6Xy.6.5.4.2.5.5.M.q.m.^.[.[.F.d.9XHXAXLXVXk.o.              ",
"    @.4.2.3.-.*.2.0.Y. X|.I.|.G.H. X8.Z.aXdXzX2XA.5.0.9.4.2.3.y.m.M.~.`.(.K.d.j.KXKXAXVX9X*X-X            ",
"    %.9.9.4.5.M.m.q.r.d.A.F.V.D.N.J.0.r..XsXaXn.Z.q.Z.9.4.r.8.S.B.m.G.~.).^.,.j.9XSXz.z.z.z.-X            ",
"      B.9.1.4.r.q.0.r.A.B.D.P.J.N.P.0.e.|.pXdXOX_.N.F.N.M.q.t.A.K.H.J.G.(.^.<.i.g.X.i.g.z.g.k.            ",
"      T.( _ e.0.5.-.6.C.F.H.C.B.G.D.w.2.U.sXdXdXuXF.D.F.F.M.M.W.L./.[.rX'.H.A.7.) / >.s.g.g F             ",
"        _ M %.7.r.7.0.q.B.e.u.y.M.N.N.9.|.zXxXhXyXJ.N.N.N.q.q.T.W.eXtX`.(.H.Z.e.%.%.) ] ! d g             ",
"        i.i.7.1.r.t.e.,.} _ ) e.B.D.D.G.dXxXxXhXgX'.N.N.D.N.L.A.V.`.eX/.~.^.N.q.%.` g d p mX@X            ",
"        / / / r.1.#.#.%.,.<.F.~.G.~.~.'.dXzXhXgXgXpXD.D.H.F.A. X^./.'.~.^.F.F.L./ W g i p mXFXmX          ",
"        W g E $.1.%.8.6.F.(.`.`.`.`.].[.uXsXuX[.dXjXm.C.M.r.d.T.Z.L.A.n.<.<.<.,./ g F p a z K l.          ",
"        ! s y _ e.7.y.y.F.^./.].].yXiX`.(.uX).(._.I.1.y.C.t.d.R.W.( / @.@.$.$.$.] h i 5 9 0 8 c           ",
"        ` d h s s.p.Y.p.A.P.G././.rX].D.^.~.~.[.G.9.-.0.T.T.T.E.L.e.E Q $.s.;.@.' i 2 2 w 8 > :           ",
"          V f f @./ ) ! ..I.D.G.G./.].~.D.N.G.{.<.*.-.2.3.5.t.W.L.Z.( E ^ $.@./ / V 2 8 q 0 > *           ",
"          d M ! @.$.8.M d } ^./.~.J.^.]./././.{.( ^ i.8.3.1.1.!. Xq.7.E f ! ` ] i.V = * 8 : -             ",
"            ! @.&.;.8./ u m J.(./.U.}.eX`.].eX/.*.^ ] Q ! ^ ( >X2Xu.f h i r u X.[ t 8 > - * 8             ",
"              >.;.=.8.;.M y { J.H.v.uXtXeXeXeX~.-.:.;.^ f W ~ p.Y.( h t % @ = v b 3 q w - *               ",
"              ] %.&.;.t.,.B ~ T.<.<.'.rXeXrXtX(.=.-.=.@.^ Q X.p.#.7.Q r % @ & v z 8 z b 2 #               ",
"                / Q @.y.Z...' ~ ~ P.G./././.].F.-.&.=.;.$.@.$.;.1.M.7.s @ X # l 6 3 3 6 ;                 ",
"                  %.,.%.<.m V A o.'.G.~.~.(.'.N.-.=.=.&.$.1.;.=.0.m.q._ % @ @ C j = - - *                 ",
"                    d.7.E _ m B Y.| N.~.G.G.^.q.2.3.=.&.1.3.=.=.w.9.4.| % # % S n 1 - O *                 ",
"                      M._ o.<.} | y { G.G.D.N.0.=.8.&.1.8.2.8.3.w.w.( B @ % 5 a.} j & O                   ",
"                      d...y o._ y r _ D.G.D.m.2.-.&.=.&.1.2.2.9.^.[.v.4 @ # 6 p.) j & O                   ",
"                        C 6 t 5 = 1 i <.N.m.q.2.-.:.:.+.&.1.2.m.rX{.G % X # j ) ~ j o +                   ",
"                        8 9 & @ & # % _ M.9.6.3.-.&.&.+.( #.-.V.aX{ k @ X - S ..u % O                     ",
"                          - & @ # # # t y.9.3.-.:.&.&.#.#.^ &.d.b.k 4 . o % ' N # O O                     ",
"                            $ . # o X = N 9.6.6.*.&.8.;.&.+.f u 6 1 @ . X i i.i # O *                     ",
"                            O . . X X X 4 ( 7.7.#.^ / / ) Q % . * - o . 8 i.] t # >                       ",
"                                . O o X & 7 _ u.#.%.Q E f f % . * * o . t M d 2 $                         ",
"                                      o ; 2 k N ~ } } ,.,.! 1 ; O O # , A t % 8                           ",
"                                            u u n ' ~ ~ n 1 = $ o X @ V A 2                               ",
"                                                    S d t 6 1 = $ # 2 I                                   ",
"                                                          l 6 -                                           ",
"                                                                                                          ",
"                                                                                                          ",
"                                                                                                          "
};
