/* XPM */
static char *df65feb0f4ce414fa6479d978351fc22xqw4fngoINCwqcQi[] = {
/* columns rows colors chars-per-pixel */
"64 64 147 2 ",
"   c None",
".  c #161314",
"X  c #191617",
"o  c #1D1B1C",
"O  c #211E1F",
"+  c #221F20",
"@  c #252223",
"#  c #282627",
"$  c #2A2728",
"%  c #2C2A2A",
"&  c #302D2E",
"*  c #343233",
"=  c #383637",
"-  c #393738",
";  c #3D3B3B",
":  c #403E3E",
">  c #413F40",
",  c #454243",
"<  c #484647",
"1  c #494748",
"2  c #4C4A4B",
"3  c #504E4F",
"4  c #514F50",
"5  c #545353",
"6  c #585657",
"7  c #595758",
"8  c #5D5B5C",
"9  c #605E5F",
"0  c #615F60",
"q  c #656364",
"w  c #686667",
"e  c #696768",
"r  c #6D6B6C",
"t  c #706E6F",
"y  c #716F70",
"u  c #747373",
"i  c #787777",
"p  c #797778",
"a  c #7C7B7B",
"s  c #807F7F",
"d  c #817F80",
"f  c #848383",
"g  c #888787",
"h  c #888788",
"j  c #8C8B8B",
"k  c #908F8F",
"l  c #908F90",
"z  c #949393",
"x  c #989797",
"c  c #989798",
"v  c #9C9B9C",
"b  c #A09F9F",
"n  c #A09FA0",
"m  c #A4A3A3",
"M  c #A8A7A7",
"N  c #A8A7A8",
"B  c #ACABAC",
"V  c #B0AFAF",
"C  c #B0AFB0",
"Z  c #B4B3B4",
"A  c #B8B7B7",
"S  c #B8B7B8",
"D  c #BCBCBC",
"F  c #C0BFBF",
"G  c #C0BFC0",
"H  c #C0BFC0",
"J  c #C1C0C1",
"K  c #C2C1C1",
"L  c #C3C2C2",
"P  c #C3C2C3",
"I  c gray76",
"U  c #C4C3C3",
"Y  c #C5C5C5",
"T  c #C7C6C7",
"R  c #C3C3C3",
"E  c #C8C7C7",
"W  c #C8C7C8",
"Q  c #C9C8C9",
"!  c #CACACA",
"~  c #CCCBCB",
"^  c gray80",
"/  c #CFCECF",
"(  c gray81",
")  c #CCCBCB",
"_  c #D0CFCF",
"`  c #D0CFD0",
"'  c #D0D0D0",
"]  c gray82",
"[  c #D2D1D2",
"{  c #D4D3D3",
"}  c gray83",
"|  c #D5D5D5",
" . c gray84",
".. c #D7D6D6",
"X. c #D7D6D7",
"o. c #D7D7D7",
"O. c #D4D3D3",
"+. c #D8D7D7",
"@. c #D8D7D8",
"#. c #D8D8D8",
"$. c #D9D8D8",
"%. c gray85",
"&. c #DAD9D9",
"*. c gray86",
"=. c #DCDBDB",
"-. c gainsboro",
";. c #DDDCDD",
":. c #DDDDDD",
">. c #DEDDDD",
",. c gray87",
"<. c #DBDBDB",
"1. c #E2E2E2",
"2. c gray89",
"3. c #E4E4E4",
"4. c #E5E4E4",
"5. c gray90",
"6. c #E6E6E6",
"7. c #E7E7E7",
"8. c #E4E3E4",
"9. c #E8E7E7",
"0. c #E8E7E8",
"q. c #E9E9E9",
"w. c #EAE9E9",
"e. c #EAEAEA",
"r. c gray92",
"t. c #ECECEC",
"y. c #EEEDED",
"u. c #EEEEEE",
"i. c #EFEFEF",
"p. c #ECECEC",
"a. c #F1F1F1",
"s. c #F2F1F2",
"d. c gray95",
"f. c #F3F3F3",
"g. c #F4F4F4",
"h. c gray96",
"j. c gray97",
"k. c #F3F3F3",
"l. c #F8F8F8",
"z. c #F9F9F9",
"x. c gray98",
"c. c #FBFBFB",
"v. c gray99",
"b. c #FDFDFD",
"n. c #FEFEFE",
"m. c white",
"M. c #FEFEFE",
/* pixels */
"                                                                                                                                ",
"                                                                                                                                ",
"                                                                    3 r k v f                                                   ",
"                                                                          u m K m                                               ",
"                                                % O o   $ 1 w a g a a a       e A  .m                                           ",
"                                            5 2 > r c B S K Y F A B m B D Z r     p =.,.c                                       ",
"                                        < e 8 c *.9.( B h t q u j B D { y.m.a.S r , w D z.K q                                   ",
"                                      : j m #.o.Z f q 5 ; % 2 b ,.7. .D S *.z.m.z.E j a S m.*.r                                 ",
"                                    , B O.K j m m q - , 8 p l m A ! y.m.g. .,.m.m.m.a.Z f ' m.w.s                               ",
"                                  ; ! y.g p K j 0 i B 7.z.m.m.m.z.g.g.m.m.m.m.m.m.z.a.m.~ b 7.m.g.z                             ",
"                                * Z 3.i c O.r j 7.m.m.m.z.w.,.7.a.m.m.m.m.m.m.m.m.z.S ,.m.1.B 7.m.z.m                           ",
"                              @ a R q A ' q B m.m.z.#.m p q q q q p B 7.m.m.m.m.m.m.p.m w.m.a.*.m.m.z.x                         ",
"                              < B 5 B *.r ! m.m.*.j i f a g g g j j y 8 j 7.m.m.m.m.m. .m c.m.m.m.m.m.D 5                       ",
"                            @ u 8 x w.p / m.m.K u q a V A S Z B m v v j 8 5 D m.m.m.m.m.m Y m.m.m.m.m. .r *                     ",
"                            ; q p g.z S m.z.B i r m S Z B F E Y Z j f m v r 1 v m.m.m.m.1.j g.m.m.m.m.m.j &                     ",
"                          + 1 8 p.D c m.z.c e a B M D / *.Y / o.,.D f i x x u 1 j z.m.m.m.v K m.m.m.m.m.K $                     ",
"                          * 8 Z 7.j y.m.m 8 p m v m B R ' *.a.g.7.! m p i f j u , z m.m.m.<.l c.m.m.m.m.y.1 @                   ",
"                        # 8 a ,.n K m.' q r v c z D / c u r i z A Y -.S y r z l i ; m m.m.z.z <.m.m.m.m.m.a o                   ",
"                        , q B ,.z z.g.f w z j j  .B 8 5 q z b l d d n E Q y r l j e , ! m.m.S B m.m.m.m.m.m o                   ",
"                        3 a y.W ' m.K r a h i ' z r d u t c K A x f d c R R w y j g 0 5 y.m.1.j g.m.m.m.m.! %                   ",
"                      : < C z.' z.g.g r f w Y m a B k 5 q e t g j k f f C S B 7 a x n > z m.m.l <.m.m.7.w.7.2                   ",
"                      - < 1.m.g.m.W e i 8 m G q B s 5 f j a t y q y d r f #.N v 8 j m i - <.m.B Z m.m. .D j.q                   ",
"                      @ f m.m.m.m.j 9 u w *.0 f a 5 e q p j i q u y r p 7 c Q v f i j j < f m.' x m.m.,.m m.d                   ",
"                      % ^ m.m.m.w.e u 5 C c 1 g 5 < u B h a j v f h r s p 3 D n v y j j r ; 7.y.g a.m.y.z m.m                   ",
"                    o 0 z.m.m.m.K e i 5 } 5 9 r 5 p v e z V z i f Z S a k q q ^ z j g v p ; B m.g 7.m.a.z z.U                   ",
"                    @ B m.m.m.m.z r 8 z S ; q q 5 j u m n c j a 5 x 3.' u h 1 A c z f m a 8 e m.v ' m.l.l a. .:                 ",
"                    ; 1.m.m.m.k.t u 3 W a , j 5 p e f j m c z f u q F l.j j 8 a l u z x f i < t.C D m.z.x 0.1.,                 ",
"                    9 z.m.m.m.,.r i 6  .5 a B r a i j p 2 5 3 8 6 u m b.! f f 5 l 5 z j j g > ^ P S m.m.n w.w.2                 ",
"                  . f m.m.m.m.K q u p / , Z j g u j f , j D e 5 - 7 h } a.s b < z , j g v j 3 B *.A m.m.n 7.a.7                 ",
"                  o m m.m.m.m.Z 8 6 c B 8 H f p r n 8 B -.1.K p w = r v c.x B 2 c 2 g j n z 5 j 7.K r.m.m 1.m.q                 ",
"                  * / m.m.m.m.V q 1 A v e S s q i j a Y v B 1.p a - 2 v 3.C V w f 4 d f v z 0 u r.! N k.B 7.m.q                 ",
"                  2 9.m.m.m.m.x 5 2 ) f q Z h 1 f u A Z u c *.z j 2 7 z ' E R p p < i l B m i 2 ,.,.h w.! g.z.q                 ",
"                  5 t.m.m.m.m.j 5 6 { i i B u 1 j 8 ! a a  .c.B z 5 2 x ! H D r g 4 a f K m p 1 1.w.i 3.O.z.g.5                 ",
"                  2 y.m.m.m.z.j 9 7  .t f Z r , a r / q f y.R p f < 2 n m Z l 5 f 5 p a ) j r 5 y.i.a y.7.m.y.,                 ",
"                  1 y.m.m.m.z.j 7 7 *.r q B e < i 6 U q 4 j > p i 1 8 D x b r , j 1 u j / p q 5 a.2.d l.b.m.w.;                 ",
"                  , w.m.m.m.b.g 5 7 *.j q Z 0 % r 5 m m * D K h < 2 r S x g < , z , i B K p 9 e l.Y h m.m.m.1.*                 ",
"                  , w.m.m.m.m.j 8 5 o.m r B e # q j 4 Y p 8 u < q 7 c k b 6 ; 3 l 3 f ( m r < j m.v B m.m.m.,.-                 ",
"                  : 7.m.m.m.m.z w 8 ! Z u F a # < v - a } V v A l j i u j * , t p q z C f u - A b.f *.m.m.m.*.*                 ",
"                  *  .m.m.m.m.B y 2 B K z ^ j = - e , ; v D A Z Z d 5 k 9 * , u 8 p c m u q 8 a. .d z.m.m.m.K $                 ",
"                  # Y m.m.m.m.K a 8 j A z _ x 8 ; r 8 * 5 x m m g 3 r k - ; 2 u 9 j x v i 5 C m.v v z.m.m.m.v                   ",
"                  @ S m.m.m.m.,.s q a n z P Z d % i i 5 , 8 i r 4 r v 3 * > p q a c j q u 5 W a.a A g.m.m.m.u                   ",
"                  X c m.m.m.m.y.g q u f z j #.z 8 ; g f u 5 5 1 g Y q = < r g r z c p q 8 y 2.D d E m.m.m.7.,                   ",
"                    u m.m.m.m.z.j i q p j q S B x ; 3 g a d f g k u 2 2 q j t g B v q p < v t.g j w.m.m.m.Z @                   ",
"                    5 j.m.m.m.m.B a 5 g i a 8 B m x ; 5 p a f p r 8 4 q c s j B C i i 8 3 ,.Z a A m.m.m.m.e                     ",
"                    : 3.m.m.m.m.#.d q a p z 2 a A Z v 5 3 8 q 0 5 5 r R Y x A y.b q i - n w.m j a.m.m.m.' ,                     ",
"                    # K m.m.m.m.g.g g u n u g e B V D ' c f a p j Z u.7.m A m.R u s 4 t a.1.j R m.m.m.z.j <                     ",
"                      j m.m.m.m.7.v j f S g g i x / Y R g.g.7.7.g.7.A x / p.A q a r 8 ' m.B z b.m.m.m.Y t *                     ",
"                      5 y.m.m.m.t.Z p C B 1.w B z j M B R o.Q D B j g ' -.c e a f 0 B m.Q p t.m.m.m.y.g q                       ",
"                      $ D m.m.m.m.K l m m  .K p K j q f A O.E Z b x b B j t j j t c m.! r @.m.m.m.m.m p *                       ",
"                        p m.m.m.m.7.B a H z a.V q M N d i g l g i g h i f B j 3 c a.A 6 E m.m.m.m./ d 8                         ",
"                        ;  .g.z.m.m.D c z H c z.Z 1 r B v g p a i a j b x 8 1 B y.B 5 D m.m.m.m.7.c g                           ",
"                          h 1.F m.m.y.n h m Z v z.} q > i j c x z f e 1 : a / ^ a 2 K m.k.m.m.p.B Z 1                           ",
"                            C x 3.m.m./ v i M Z x t.7.g 4 , < 2 5 2 8 f B D m 3 6 ' m.' / m.g.U S 8                             ",
"                            8 z m m.m.m.Z m e m R j H 7.F z p i p f z m B l q x u.z.m m l.m.a.K 6                               ",
"                              u g  .m.m.z.B B e j <.B z A  .1.*.' / F c r a  .m.1.t p a.m.m.Y 5                                 ",
"                                7 i a.7.1.g.m B a q H 7.K m x x j f g m *.v.,.z 5 c g.m.z.Z ,                                   ",
"                                  $ l z.*.' a.Z v b q e B *.w.w.w.y.y.,.S u < u ' m.m.a.j *                                     ",
"                                5 5 e c y.1.D *.K h B m r 5 5 8 0 5 2 , 5 f _ z.m.m.1.s                                         ",
"                                  a x x j *.a.' ^ ,./ ! *.,.E Z B B D ..a.m.m.m.y.Z q   ; #                                     ",
"                                    g ' 1.Z D a.m.m.m.m.g.m.m.m.m.m.m.m.m.z.-.m 8 * 8 r 1                                       ",
"                                        A A x M  .a.v.m.m.m.m.m.m.m.b.y. .B j z v j e                                           ",
"                                              q 1 0 k B K /  .=.,.,. .Y S Z A M                                                 ",
"                                                                                                                                ",
"                                                                                                                                "
};
