/* XPM */
static char *_16f4a9e28b04161daef1a0985e95270goowjTWFbl6CGIwu[] = {
/* columns rows colors chars-per-pixel */
"64 64 154 2 ",
"   c None",
".  c #73266D",
"X  c #762B71",
"o  c #7A2E75",
"O  c #7B3277",
"+  c #7E3379",
"@  c #7F397B",
"#  c #81367C",
"$  c #83397E",
"%  c #863D82",
"&  c #883F84",
"*  c #874184",
"=  c #894286",
"-  c #8A4B87",
";  c #8C4589",
":  c #8E4A8C",
">  c #904C8F",
",  c #8E508D",
"<  c #90558F",
"1  c #924E91",
"2  c #8F5490",
"3  c #955394",
"4  c #985697",
"5  c #955A96",
"6  c #975698",
"7  c #985698",
"8  c #975C98",
"9  c #9B5C9B",
"0  c #966097",
"q  c #966398",
"w  c #9C629E",
"e  c #9C6A9E",
"r  c #9E5FA0",
"t  c #9F62A0",
"y  c #9E6AA1",
"u  c #9F73A3",
"i  c #A265A4",
"p  c #A16CA4",
"a  c #A26DA6",
"s  c #A26AA5",
"d  c #A56AA8",
"f  c #A66BAA",
"g  c #A46DA8",
"h  c #A66CA9",
"j  c #A66DA9",
"k  c #A56FA8",
"l  c #A76CAA",
"z  c #A66DAA",
"x  c #A76DAA",
"c  c #A76CAB",
"v  c #A76DAB",
"b  c #A66FAA",
"n  c #A76FAB",
"m  c #A66CA9",
"M  c #A86DAC",
"N  c #A86EAC",
"B  c #A86FAC",
"V  c #A96FAC",
"C  c #A96EAC",
"Z  c #A372A6",
"A  c #A373A6",
"S  c #A771AA",
"D  c #A770AB",
"F  c #A771AB",
"G  c #A772AB",
"H  c #A477A9",
"J  c #A777AC",
"K  c #A674AA",
"L  c #A870AC",
"P  c #A871AC",
"I  c #A972AD",
"U  c #A970AE",
"Y  c #AA71AE",
"T  c #AA71AF",
"R  c #AB71AF",
"E  c #AB72AF",
"W  c #AA73AF",
"Q  c #AB73AF",
"!  c #A976AD",
"~  c #AA74AF",
"^  c #AA76AE",
"/  c #AA72AE",
"(  c #A77AAC",
")  c #AA78AF",
"_  c #A97AAE",
"`  c #AA7BAF",
"'  c #AA7CAF",
"]  c #A97BAE",
"[  c #AB72B0",
"{  c #AB73B0",
"}  c #AC73B0",
"|  c #AC73B1",
" . c #AC74B0",
".. c #AC74B1",
"X. c #AD74B1",
"o. c #AD74B2",
"O. c #AD75B2",
"+. c #AE75B2",
"@. c #AD76B2",
"#. c #AD77B2",
"$. c #AD76B3",
"%. c #AD77B3",
"&. c #AE76B3",
"*. c #AE77B3",
"=. c #AE77B4",
"-. c #AD75B2",
";. c #AD78B2",
":. c #AD78B3",
">. c #AD79B3",
",. c #AE78B3",
"<. c #AE79B3",
"1. c #AE7AB3",
"2. c #AE7BB3",
"3. c #AB7CB1",
"4. c #AD7DB2",
"5. c #AE7FB3",
"6. c #AE78B4",
"7. c #AF78B4",
"8. c #AE79B4",
"9. c #AF79B4",
"0. c #AE7AB4",
"q. c #AF7BB4",
"w. c #AE7CB4",
"e. c #AF7CB4",
"r. c #AE7DB4",
"t. c #AE7EB4",
"y. c #AE7FB4",
"u. c #AF7EB5",
"i. c #AF7FB5",
"p. c #AE7BB3",
"a. c #B07BB5",
"s. c #A981AF",
"d. c #A58AAB",
"f. c #AD81B3",
"g. c #AB86B1",
"h. c #AB86B2",
"j. c #AE80B4",
"k. c #AE81B4",
"l. c #AE80B5",
"z. c #AF80B5",
"x. c #AE81B5",
"c. c #AE83B5",
"v. c #AF83B5",
"b. c #AF84B5",
"n. c #AF85B5",
"m. c #AE83B5",
"M. c #AD8EB4",
"N. c #AE8FB6",
"B. c #AE8BB6",
"V. c #B084B6",
"C. c #B08AB7",
"Z. c #B18FB8",
"A. c #AF90B7",
"S. c #B096B8",
/* pixels */
"                                                                                                                                ",
"                                                                                                                                ",
"                                                                    & 1 9 9 3                                                   ",
"                                                                          1 9 d 9                                               ",
"                                                # + +   # & ; 3 3 3 3 3       > r c 9                                           ",
"                                            = & % > 9 r r d d i i r 9 w d r >   # 1 C C 9                                       ",
"                                        % > ; 9 N o.d 9 3 > : 1 3 9 p J E +.o.i : % : i +.i :                                   ",
"                                      % 7 9 N D 9 3 > ; $ # & 9 C ,.j i s d o.+.o.d 6 1 i =.d 1                                 ",
"                                    % w j i 3 w 9 : % * ; 3 8 9 s s [ +.N.G d +.t.z.z.t 3 d =.C 3                               ",
"                                  % j o.3 1 Z 9 : 1 w ;.z.t.t.+.+.E [ +.t.t.o.t.z.+.3.+.i 9 [ =.o.7                             ",
"                                % i h.1 9 J > q ] o.t.8.f.^ C ^ N.t.=.+...8...,.+...p G ,.G t E +.+.9                           ",
"                              + 1 i : t N > w t.a.o.j 9 3 : : : , 1 w h.8.+.b.8.8.8.3.t ..8.[ j +.+.+.9                         ",
"                              & r ; w G : j t.=.d 1 1 1 5 5 3 9 7 7 3 - 7 ^ t.+.z...z.j w r...8.+...+.i &                       ",
"                            # 1 : 9 E 3 H =.=.9 & = 3 i i i t 9 9 9 w 9 : ; i +.b.b.;.t.9 s 8.8.,.,.8.j > #                     ",
"                            % : 1 +.6 y C...5 ; > y y r y s d i i 7 3 9 9 > = 9 ..t.t.z._ 5 [ 8.t.8.+.=.4 #                     ",
"                          # & ; E i 9 +.+.6 = 1 t w s d v i d d C i 3 3 9 9 1 * 8 +.+.b.z.9 s 8.t.b...+.d #                     ",
"                          $ = i C 5 h.8.9 ; 1 r e w w i d E E +.C d 9 3 1 3 9 > * 3 8.a.r.E 5 +.t.b.+...o.& +                   ",
"                        + ; 1 ^ 9 s z.d : > e 9 9 s G 9 > : 3 7 i d N s 3 < q 8 1 $ 9 a.,.t.8 N 8.+...+.=.3 +                   ",
"                        % ; 9 ^ 8 8.z.3 ; 9 9 3 G 9 % & ; 4 w 4 1 1 9 s k > 3 9 q : # i ,.C.p w t...+...=.9 +                   ",
"                        = 3 +.s j a.p : 3 3 3 J 5 & : 1 1 9 i 9 4 3 1 7 d s > 1 q 8 = $ E C.] 3 t.,.8.t.+.d #                   ",
"                      % & y N.d 8.+.3 : 3 : J 5 : w 7 & : : 1 3 7 3 3 3 u i w ; 3 q w $ < a.a.4 J 8.b.] E E &                   ",
"                      % & ^ z.[ +.i ; 3 ; e e * r 1 ; 3 1 1 1 1 : > 3 > 3 N 9 9 : 8 w > # N a.w t 8.t.j t +.>                   ",
"                      + 1 Z.z.+.=.3 ; , : ( % 3 1 ; > : 3 7 3 ; 1 1 > 1 = 9 k 9 3 3 3 3 * 3 a.Z 8 8.,.s.9 8.3                   ",
"                      # d 8.N.,.E : : ; A q $ 5 & % : 9 4 3 6 9 3 4 > 3 1 = Z w 4 > : > > % E ,.3 ,.,...9 =.9                   ",
"                    + ; ,.+.b.8.i ; > ; ] ; ; : $ - 9 > 7 t 7 1 1 p Z 1 9 ; > J 4 3 3 < 1 % 9 a.3 E 8.+.9 +.d                   ",
"                    # 9 r.b.h.=.> : ; 9 i % ; ; @ 3 2 y 9 9 6 3 = 9 R d 1 5 * p 9 4 3 8 > ; > V.e d 8.+.3 r.j %                 ",
"                    % C ,.f.A.+.* : = j 3 % 3 % : : 5 6 9 9 8 3 1 : i +.3 9 ; 3 9 ; 3 3 > 3 % R e i 8.=.3 E M &                 ",
"                    : =.+.,.b.G * 1 = N = 3 9 ; 1 1 6 1 @ % & : ; > 9 a.s 3 5 = 9 % 1 3 > 3 % J s y V.+.9 [ R &                 ",
"                  o 3 a.t.+.V.u ; : 1 G % p 4 3 : 9 3 # 3 9 % & % ; 3 s o.1 9 = 9 # 3 3 3 5 ; y D i t.+.9 R o.;                 ",
"                  # 9 a.N.r.=.i = ; 9 y ; s 1 1 : w = i C C i 1 : $ > 9 +.9 r ; 7 # 3 9 q 5 : 3 R s ^ +.9 C &.:                 ",
"                  $ ( ,.+.r.z.9 ; & y 9 : s 1 : 1 7 3 s 9 r [ 1 1 $ & 9 D r r > 3 @ > 3 9 9 ; 1 [ d.y +.9 o.=.:                 ",
"                  - M.+.+.t.z.7 ; % J 3 : t 3 & 3 5 t r 1 7 C 9 4 & ; 7 s s d 1 > O 1 3 w w > = C ^ 3 o.s o.+.:                 ",
"                  ; ..;.z.z.,.3 = * E 1 1 9 > & 3 : s 3 3 ( b.t 9 ; = 4 d s i : 3 O : 3 p 9 1 % C ;.2 C G +.+.;                 ",
"                  * E z.h...b.3 = = J > 4 i > & 1 : d % 3 ;.p 1 3 & & 7 9 i 4 = 3 @ : 3 J 5 1 = o.z.3 ..^ +.[ &                 ",
"                  = [ ,.b.8.,.5 & @ [ 1 : y : % 1 = d % % 6 & 1 3 & = i 9 y ; & 3 @ 1 3 J < : = [ C 1 ..o.o.C %                 ",
"                  % E r.b.z.z.8 % @ C 3 : i ; # > = 9 8 X i i 8 & * > w 9 5 + % 9 % 1 t s 3 - : =.i 3 ,.N.=.C #                 ",
"                  % E +.b.8.8.3 & O J 9 : i : o = 6 = j : * 1 % : = 9 3 9 $ O ; 9 & 3 d r : & 3 a.9 9 8.t.=.C %                 ",
"                  % ;.b.h.>.=.9 = O i p 5 p 1 o + t % 3 v t 9 i 7 4 1 1 9 . $ : 1 ; 9 y 3 1 % t =.1 J t.t.z.j $                 ",
"                  $ J ;.z.b.8.t * O 9 j 9 j 3 # o : % % 7 d i t i 3 = 9 % o = > ; 1 9 y 1 : ; o.d 1 +.+.=.8.i $                 ",
"                  # H ,...>.>.y : O 3 p 9 C 7 = X : ; # ; 7 r 9 3 = < 3 X $ = > ; 3 9 e 3 ; r 8.9 9 b.+...8.t                   ",
"                  + i 8.C.+.8.k * @ > t q y t 3 O : 5 = % ; 1 1 = 1 w O + % 3 : 3 9 6 : 3 * i o.1 i ,.+.+.,.3                   ",
"                  + 7 V.S.z.+...- % : 6 r 6 M 9 ; & 3 5 1 = = & 3 s % o & > 3 > 6 9 1 : : 1 C i 3 s ,.8.+.] *                   ",
"                    1 =.t.z...8.: = = 2 8 > i r 9 % = 6 1 1 1 3 3 > % % : 8 1 3 r 9 : 5 & 9 [ 3 8 E h.b.,.y #                   ",
"                    ; +.+.+.z.z.8 : * 5 1 3 : r r 9 + % 1 3 3 3 > ; = : 9 3 3 t i 1 : = = C r 3 t t.+.+.+.>                     ",
"                    % C ;.z.8.t.Z : ; 3 3 8 = 1 d r 9 % & ; ; : = & : s i 3 t o.9 = : % 9 [ 9 8 3.,.b.t.d %                     ",
"                    # i z.t.....$.3 3 : y 3 8 : r r i f 8 3 > > 3 i E f.5 t 8.i : > & > ..f 3 s C.8.,.8.6 &                     ",
"                      3 t.b.8.8...9 3 5 u 8 8 1 9 d d i >...[ [ r.E 9 , p [ y * : : = Z l.9 8 B.b.,.=.d > #                     ",
"                      ; ;.8.+.8...y 3 i w ;.: i 7 3 r t i d d i 9 3 : k G 9 : > 5 ; t r.d 1 =.b.t.,.Q 3 ;                       ",
"                      # i 8.+.,.b.Z 8 w e J s 3 Z 5 : 1 t d d t r 9 9 t 3 : 3 5 3 9 +.i > C C.h.t.+.e 1 $                       ",
"                        1 +...r.z.3.y 3 j 8 b.w * e t 1 : 3 6 3 1 3 3 : 3 y 3 ; 8 8.t ; s C.t.8.S.d 1 ;                         ",
"                        % j ..;.r.b.i 9 8 p 8 z.e @ : r 9 5 1 > 1 1 3 9 9 : & t ^ e - J =.t.b.+.C 7 7                           ",
"                          3 E s ,.z.N.w 6 e q 0 z.s % O : 8 9 w 7 4 : & * 5 G j 1 & p b...z.C.C r i =                           ",
"                            i 9 ^ 8.C.J 9 1 t 9 q ;.3.> @ + + * = = : 3 y Z t = ; d V.G j r.r.d d ;                             ",
"                            ; 9 9 t.+.8.i y > 9 y 5 y [ Z 8 > 3 3 3 9 w t 7 : q +.,.w 9 +.C.^ i ;                               ",
"                              1 3 j z.r.+.w t > 6 C 9 > w k J J J j i 9 1 1 j z.] : 3 ;.8.8.s =                                 ",
"                                ; : ;.;.C ..9 r 3 : i C t 5 3 8 5 3 3 9 j +.E 6 ; 9 ;.+.o.r &                                   ",
"                                  # 7 =.] G +.t 9 9 : > r d E o.E [ [ N t 1 & 1 ( V.,.o.4 #                                     ",
"                                = = > 7 r.^ i C s 3 r w 1 ; = ; ; ; = & = 3 j +.z.t.C 1                                         ",
"                                  3 9 9 3 d o.d d C s j C C d 9 9 r s d +.t.8.8.E t :     +                                     ",
"                                    3 d N y s o.o.o.8.h.o.,.t.,.a.a.,.t.+.+.C 9 ; % ; > =                                       ",
"                                        i i 9 9 c o.o.+.+.8.+.8.+.=.t.f.j r 3 9 9 7 1                                           ",
"                                              > & : 7 9 i d J j v C d i i t i 9                                                 ",
"                                                                                                                                ",
"                                                                                                                                "
};
