/* XPM */
static char *d8c33c9098634b81baeda1cf1a6dc6d4imrhgPTQ8njzEbPi[] = {
/* columns rows colors chars-per-pixel */
"64 64 231 2 ",
"   c None",
".  c #070403",
"X  c #0B0505",
"o  c #0D0906",
"O  c #0E0908",
"+  c #150606",
"@  c #120907",
"#  c #140C0A",
"$  c #1B0C0A",
"%  c #1A0807",
"&  c #1C120D",
"*  c #1C1411",
"=  c #141212",
"-  c #250D0C",
";  c #2C0E0D",
":  c #380E0D",
">  c #23140E",
",  c #2A150F",
"<  c #281A0F",
"1  c #35130F",
"2  c #2A0F11",
"3  c #251511",
"4  c #2D1312",
"5  c #251913",
"6  c #2B1B14",
"7  c #2D1C19",
"8  c #311612",
"9  c #3A1514",
"0  c #341D13",
"q  c #3C1B15",
"w  c #35191B",
"e  c #2E211A",
"r  c #362116",
"t  c #3C2216",
"y  c #33221B",
"u  c #3C251B",
"i  c #3E291D",
"p  c #381C26",
"a  c #392923",
"s  c #431412",
"d  c #441A17",
"f  c #551715",
"g  c #771A17",
"h  c #45251A",
"j  c #4D2E1D",
"k  c #462518",
"l  c #522E1D",
"z  c #56241E",
"x  c #4D321F",
"c  c #56321F",
"v  c #70221F",
"b  c #4A1C25",
"n  c #492825",
"m  c #562927",
"M  c #4C352B",
"N  c #483327",
"B  c #5B3B24",
"V  c #583526",
"C  c #4E3B37",
"Z  c #553A37",
"A  c #522B34",
"S  c #782A29",
"D  c #693A28",
"F  c #793E22",
"G  c #763937",
"H  c #632B2E",
"J  c #5A462D",
"K  c #5A4539",
"L  c #62412A",
"P  c #6B452C",
"I  c #6B4A2D",
"U  c #77472B",
"Y  c #674935",
"T  c #7B4F33",
"R  c #754938",
"E  c #645133",
"W  c #785538",
"Q  c #796136",
"!  c #6F3D44",
"~  c #5A4B47",
"^  c #664D43",
"/  c #744144",
"(  c #6C5746",
")  c #785747",
"_  c #675756",
"`  c #785852",
"'  c #784E53",
"]  c #756357",
"[  c #7D6149",
"{  c #775F61",
"}  c #776664",
"|  c #766F6C",
" . c #8B1D1C",
".. c #86292E",
"X. c #8F3232",
"o. c #AC3134",
"O. c #854B35",
"+. c #845938",
"@. c #8F4D33",
"#. c #8B633C",
"$. c #94683E",
"%. c #A2683E",
"&. c #B3733B",
"*. c #A74E34",
"=. c #923B47",
"-. c #A93F45",
";. c #865648",
":. c #8C4F50",
">. c #A25651",
",. c #886744",
"<. c #956746",
"1. c #997648",
"2. c #886A57",
"3. c #976F55",
"4. c #977557",
"5. c #88705B",
"6. c #A57B4B",
"7. c #A87745",
"8. c #A87956",
"9. c #B57253",
"0. c #8E4E67",
"q. c #8B756A",
"w. c #977966",
"e. c #887675",
"r. c #987D76",
"t. c #966466",
"y. c #A57E65",
"u. c #AD6A6E",
"i. c #CF6175",
"p. c #C7883B",
"a. c #AF8348",
"s. c #B7884D",
"d. c #BA9349",
"f. c #AC8C5A",
"g. c #A88656",
"h. c #B48856",
"j. c #AE935D",
"k. c #B8955A",
"l. c #BEA156",
"z. c #948373",
"x. c #A58465",
"c. c #AB8969",
"v. c #AD9469",
"b. c #B99567",
"n. c #A68C74",
"m. c #AA9973",
"M. c #B79A75",
"N. c #B88A6C",
"B. c #BFA37B",
"V. c #BEA666",
"C. c #C9974C",
"Z. c #C59957",
"A. c #C58C46",
"S. c #CBA45C",
"D. c #CCA459",
"F. c #D4A75A",
"G. c #D2A04D",
"H. c #C49B63",
"J. c #C79D69",
"K. c #C7A66A",
"L. c #D4AD62",
"P. c #D2A86C",
"I. c #D9B56B",
"U. c #CBA876",
"Y. c #D7BA76",
"T. c #CAB276",
"R. c #DEC174",
"E. c #DEC165",
"W. c #E2C97A",
"Q. c #A67B82",
"!. c #AF7492",
"~. c #8D7A83",
"^. c #CD7189",
"/. c #9A8C88",
"(. c #A89988",
"). c #A89C9B",
"_. c #AE858A",
"`. c #B6A689",
"'. c #BBA895",
"]. c #AAA396",
"[. c #AEB4A5",
"{. c #AFB0AF",
"}. c #CB9897",
"|. c #C88E8C",
" X c #C4A981",
".X c #CCB283",
"XX c #C8B385",
"oX c #D5B787",
"OX c #C5A898",
"+X c #C6B498",
"@X c #D2B494",
"#X c #C683A9",
"$X c #C6A8A4",
"%X c #C6BAA7",
"&X c #D3BFA8",
"*X c #D0ADB0",
"=X c #D9C485",
"-X c #D6C698",
";X c #CDC192",
":X c #E2CC8A",
">X c #E4C997",
",X c #E6D497",
"<X c #E7D18F",
"1X c #D7C8A8",
"2X c #C9C6B5",
"3X c #D6C9B9",
"4X c #DBD1B8",
"5X c #E7D5A8",
"6X c #E3CDB3",
"7X c #E8D8B6",
"8X c #E4CEA2",
"9X c #F0E4B9",
"0X c #AABBC2",
"qX c #DAB7C5",
"wX c #DEACC9",
"eX c #E5B3C9",
"rX c #B4C7CE",
"tX c #D8CAC8",
"yX c #D9D3CE",
"uX c #C3D5DD",
"iX c #D4D4CE",
"pX c #E6D9C3",
"aX c #E7D3D5",
"sX c #ECE6D9",
"dX c #F4EACF",
"fX c #EDE6E8",
"gX c #F1EFEC",
"hX c #F4F1E8",
"jX c #F4F4F3",
"kX c #F9F7F4",
"lX c #E6EEF1",
/* pixels */
"                                                              !._.#X                                                            ",
"                                                            0.!.#XeXaX*X                                                        ",
"                                                          w.=...>.i.^.' d                                                       ",
"                                                          y.H g 9.>X3.: d                                                       ",
"      f   f                                               b.O.F C.Y.I ; d                                                       ",
"        ; 1                                               Z.I.I.F.S.h 2                                                         ",
"    1 d ; - 9                                           (.M.Y.;X=Xf.w %                                                         ",
"      9 8 ; m                                           /.3.J.;X2Xc.h ~                                                         ",
"  2   7 a n n u.                      &XsXjXjXhXpX    yX3X@.H..XB.Y > ).fX:.=.! R r.tX                                          ",
"    7 A _ t.Z ! m R                 M.pXsXpX`.K.U.N.0XiXaX<.7.s.W 8 3 } gX).t.0.u.$XdXpX                                        ",
"      C ).iX' n 9 :.Q.*XqX$X$X    z.(.x.1.Q < J 3.+.Z ~ 1X3.#.%.D ; 1 ! 3X%Xe._.>.+.,.b.b.                                      ",
"        } | Z d A *XfXlXfX$XQ.yXiX`.'.[.(./.4.I I ;.w.] @X#.q l h ; ; r.|.>.x.'.+X] 5 e ,.                                      ",
"          a a - A Q.+X-X;.9 h z.].m.x.f.m.m.v.#.M M w.m.8.O., 3 9 H :.@X*X9.G m ` 2.8.A J                                       ",
"            Z ^ n z 6.$.d - 3 Z ] ] ( E E J J M ` ~ ] ^ z f U 3.OXN.}.tX|.pXOX:.h 5.<.@X(.                                      ",
"            K K > 4 l 0 % + # 7 a e < < & # # @ * 5 e i z F p.$.y.G S >.9.oX@XoXT u 7.F.>X6X                                    ",
"                  > - O O                       = O + q <.C.p.&.X.@.$.A.G.P.|.C.I # V 7.7.9.x.W         Z '.                    ",
"                                                = X 8 +.d.K.d.p.D.V.T.T.K..XZ.%.    3 j U k 4 +.,.R S / S W .X                  ",
"                                                  X r 1.l.C.D.T.B.B.[.0X[.4XoX<.      > 8 $ % k 4 s f ' m m 1.                  ",
"                                                  # # B f.K.R.-X2X0XuXuX0XiX@XW           @ @ $ $ - w 9 2 w                     ",
"                                                  o # > J v.;X1X2XrXjXlX{.%Xc.M             . @ % $ $ $ $                       ",
"                                                  o * e 6 N v.XX;X{.rXrX{.`.) n               @ # -                             ",
"                                                  X O # N 6 V 6.v.`.].[.`.c.D                                                   ",
"                                                    @ @ t M 4 O.8.f.x.5.4.W u                                                   ",
"                                                    o # 0 M , V U R W q.n.V 4                                                   ",
"                                                      # < e 3 K x.V.=X9X,XT q                                                   ",
"                                                      # e y q <.-X,X<X9X5X<.V                                                   ",
"                                                      * a a ' y.-X,X5X9X7Xc.d                                                   ",
"                                                      # a Z m c.1X:XY.W.<Xa.d m                                                 ",
"                                                      # y u m U T.R.E.W.<X8.U D                                                 ",
"                                                      $ a Z k @.g.K.L.P.P.H.%.U                                                 ",
"                                                      > h E V 7.D.C.D.F.Y.Y.k. Xy.#.                                            ",
"                                                      > x ,.;.<.I.L.S.H.J.H.h.R.-X&XU.                                          ",
"                                                      O 4 M n 8.k.S.I.R.<XY.+.Z.F.<XpX!.                                        ",
"                                                      O $ p } 2X1XM.R.:X=X6.D J.S.G.I.6XtXtX                                    ",
"                                                      M _ ~.+XpXsXx.#.g.%.l 1 T K.L.C.F.7XhXhX                                  ",
"                                                    n { e.e.tXsX+XJ > k r % @ 0 ) XXF.D.F.9XkXhX                                ",
"                                                  t ( } b X.tX3XW > X @ o . o < t [ h.S.D.L.5XkXkX                              ",
"                                                  C z./...o.@X3.i &         . @ & 6 c a.k.D.S.7XjXgX                            ",
"                                                i } ).[.8.9.g.x e             o o # < c $.1.h.s.6XeXwX                          ",
"                                              & K /.`.XXM.j.B 0                   @ # > r u [ 7.9.>.^.wX                        ",
"                                              & ] (.V.K.l.E r                       o o @ X 4 ,.g.D *.i.^.                      ",
"                                            + a z.j.d.d.I r                             X . . 3 Z P g.*.o.X.                    ",
"                                            $ ^ v.a.d.W r                                 . . . % 8 R 6.*.t.                    ",
"                                          # 3 X.a.d.$.j                                       X X # N 5.$XqX                    ",
"                                          a m  .X.7.T                                           X X $ N 2.r.                    ",
"                                        M ` v  .f D V                                           O X # q m q.).                  ",
"                                    = y Y z : s 8 N                                             X X # 8 N /.`                   ",
"                                  & y ^ H f f s 3                                               O X O t D Z R                   ",
"                                & > y ] ` m d 0                                                   X X t U ,.v.6.                ",
"                              6 > 7 y y N t                                                       = # r V Q v.g.                ",
"                            i j t $ y 5 6                                                           5 7 h I 1.f.                ",
"                            c j k k 0 5 5                                                           = & e n Q g.6.              ",
"                          c l k 6 < 3                                                                 X # 5 B g.f.              ",
"                        x B k 6 5                                                                       O * r ,.k.              ",
"                      N P c 0 >                                                                           # 5 L j. X            ",
"                      L U l 5                                                                             # 3 x 6.U.4.          ",
"                    | m.$.r                                                                               & & t W N. X          ",
"                    e..X+.3                                                                               & & e P 7.4XyX        ",
"                  Z r.,.t &                                                                               & 3 7 L %.B.%X        ",
"                @ A ! P r =                                                                               @ @ 5 t U 1.4X%X      ",
"                2 m w q 6                                                                                 X X X 6 V <.B.t.H     ",
"                - d - # @                                                                                   . . o < J [ m A H   ",
"                  @ @                                                                                             o 7 N 3 2 b b ",
"                                                                                                                        O O #   "
};
