/* XPM */
static char *_67b1865d69a47decff51096442b9c73h74eUG2HvYBlabFm[] = {
/* columns rows colors chars-per-pixel */
"52 63 245 2 ",
"   c None",
".  c #1A0B3B",
"X  c #210B37",
"o  c #230D3B",
"O  c #26123C",
"+  c #1F0D47",
"@  c #290D46",
"#  c #2D1C4B",
"$  c #291547",
"%  c #371B49",
"&  c #2C1554",
"*  c #331554",
"=  c #37175A",
"-  c #2D0C4E",
";  c #392657",
":  c #36234D",
">  c #2E1768",
",  c #3A1B6C",
"<  c #371965",
"1  c #3B1C73",
"2  c #381C7B",
"3  c #2E1878",
"4  c #3C2364",
"5  c #3C2567",
"6  c #3D2377",
"7  c #461C5D",
"8  c #4D1041",
"9  c #7A1C59",
"0  c #43245C",
"q  c #4E2A5D",
"w  c #43196B",
"e  c #461B79",
"r  c #691D6B",
"t  c #432768",
"y  c #4B3667",
"u  c #44257B",
"i  c #4B237C",
"p  c #462976",
"a  c #4B3173",
"s  c #533677",
"d  c #562E6E",
"f  c #64347B",
"g  c #6D2C73",
"h  c #5B4A76",
"j  c #544169",
"k  c #912976",
"l  c #331B8A",
"z  c #3C2584",
"x  c #34289B",
"c  c #3D28A6",
"v  c #471C87",
"b  c #4E1D95",
"n  c #44238B",
"m  c #482788",
"M  c #552888",
"N  c #4D348A",
"B  c #583888",
"V  c #4B2B94",
"C  c #482897",
"Z  c #572898",
"A  c #4A349A",
"S  c #573696",
"D  c #673788",
"F  c #64279A",
"G  c #663798",
"H  c #733389",
"J  c #492CA8",
"K  c #5B2DA4",
"L  c #562BA9",
"P  c #4B34A9",
"I  c #5B33A3",
"U  c #5938A8",
"Y  c #582CB5",
"T  c #4A39B8",
"R  c #5935B9",
"E  c #4F2CB7",
"W  c #702BA8",
"Q  c #643CAB",
"!  c #6738A8",
"~  c #7338A9",
"^  c #6C3BB3",
"/  c #6435BC",
"(  c #6639B7",
")  c #763BB8",
"_  c #682CAF",
"`  c #5C4188",
"'  c #5C4198",
"]  c #62488A",
"[  c #69459A",
"{  c #77469B",
"}  c #71568E",
"|  c #796493",
" . c #5446B5",
".. c #6B44A3",
"X. c #6949A6",
"o. c #7647AC",
"O. c #7858A7",
"+. c #6B4ABB",
"@. c #6846B8",
"#. c #7948BA",
"$. c #7855B9",
"%. c #6853B5",
"&. c #7B63A9",
"*. c #7C62B9",
"=. c #4639C5",
"-. c #5A36C6",
";. c #573AD5",
":. c #5135D0",
">. c #6C3CC4",
",. c #673AC6",
"<. c #7639C9",
"1. c #693BD7",
"2. c #793CD5",
"3. c #632DC9",
"4. c #6F3FE2",
"5. c #396BFE",
"6. c #5842C7",
"7. c #5946D3",
"8. c #524CD1",
"9. c #6646C7",
"0. c #7441C4",
"q. c #7B44CD",
"w. c #7749C7",
"e. c #7857C9",
"r. c #6744D8",
"t. c #7C4CD4",
"y. c #7C42DC",
"u. c #7845D6",
"i. c #6858D6",
"p. c #7857D8",
"a. c #6251CE",
"s. c #7E65D6",
"d. c #5A47E6",
"f. c #5854EC",
"g. c #4E59FB",
"h. c #5D58F7",
"j. c #4D4CF0",
"k. c #6A44E7",
"l. c #7748E7",
"z. c #6A57E7",
"x. c #7657E6",
"c. c #695AF8",
"v. c #7353F4",
"b. c #7A58F8",
"n. c #794FF3",
"m. c #4A67FD",
"M. c #5966FC",
"N. c #4F76FC",
"B. c #6B6BFD",
"V. c #6565FA",
"C. c #7D6CFD",
"Z. c #7866FB",
"A. c #6A75FD",
"S. c #7B75FD",
"D. c #7264E9",
"F. c #973B91",
"G. c #8D3BB1",
"H. c #824AAD",
"J. c #8854A9",
"K. c #8448BA",
"L. c #8859B6",
"P. c #964AB4",
"I. c #A34DBB",
"U. c #8965B6",
"Y. c #9663BB",
"T. c #9073B8",
"R. c #93429F",
"E. c #863ACB",
"W. c #883CD5",
"Q. c #9C3FCD",
"!. c #8A3BE1",
"~. c #8547C7",
"^. c #9846C8",
"/. c #8B55C7",
"(. c #8345D6",
"). c #8749D8",
"_. c #9645D8",
"`. c #8858D9",
"'. c #9758D7",
"]. c #9758C6",
"[. c #A555D7",
"{. c #A849D3",
"}. c #976ACC",
"|. c #9275CA",
" X c #8864DA",
".X c #9873D2",
"XX c #9264D1",
"oX c #A776D7",
"OX c #A560DB",
"+X c #864AE6",
"@X c #9749E9",
"#X c #8655E9",
"$X c #9656EB",
"%X c #844EF4",
"&X c #8858F8",
"*X c #9454F5",
"=X c #925DF6",
"-X c #9959F8",
";X c #A549E9",
":X c #A855E9",
">X c #B659E7",
",X c #A35BF4",
"<X c #A759F8",
"1X c #B65BF7",
"2X c #AD4CF1",
"3X c #8965EA",
"4X c #8C64FA",
"5X c #8B6CFD",
"6X c #8466F9",
"7X c #9463FC",
"8X c #9B65FB",
"9X c #936DFD",
"0X c #9C6CFD",
"qX c #9664F5",
"wX c #8876FE",
"eX c #9875FD",
"rX c #9872E5",
"tX c #B865E6",
"yX c #A46AFB",
"uX c #AB6BFD",
"iX c #A864F8",
"pX c #B463FD",
"aX c #B26BFD",
"sX c #BB68FA",
"dX c #A776FB",
"fX c #B573FC",
"gX c #BA73FC",
"hX c #B47BFD",
"jX c #B97AFD",
"kX c #B070E8",
"lX c #C568FA",
"zX c #C275FD",
"xX c #C978FC",
"cX c #D778FC",
"vX c #D268F3",
"bX c #E77CFE",
"nX c #9585B7",
"mX c #9984C7",
"MX c #AF8BD7",
"NX c #B688EB",
"BX c #A499EA",
"VX c #C582FD",
"CX c #D38CF5",
"ZX c #E982FD",
"AX c #F785FE",
/* pixels */
"                                                                                                        ",
"                                                                                                        ",
"                                                                                                        ",
"                                                  h nXBX                                                ",
"                                            j | } ] nXmXMXnX                                            ",
"                                    a a a 4 t | | &.mX*.nXnX|                                           ",
"                            *.|..X*.[ X.X.[ [ O.&.*.mX|.e.&.] y h                                       ",
"                        ` [ [ L.NXkX.X.X}.L.J...[ } &.&.%.&.} y y s                                     ",
"                    B B s M B $.}.oXoXY.Y.Y.Y.J...N a ` B ` &.` d s D                                   ",
"                  ` S S S ! ~ o.J.P.J.{ U.CXMXMXMXU.[ B ] O.U.J.B s B ..                                ",
"                  [ %.@.Q @.V [ H F.D D B U.MXMXMXY.XX|.|.|.} { B M M ! ( +.                            ",
"                  e.3X3Xe.$.#.XX#.X.~ +.+.L.Y.Y.J.o.o.! [ $.U.Y.J.~ ..o.+.+.X.                          ",
"                  +.`. X$.$.|.rX3XD.D.a.i.X.s { L. Xe.+.U G { J.L.].].#.! @. .'                         ",
"                  i.9.$.S B ' 8.M.j.M.D.i. .../.rXrXs.e.$.G D { L.L.`.`.I A p 6                         ",
"                ,.t. XrXw.U  .f.m.g.M.f.g.V.p.p.i.i.p.9.w.Q S ../.L..XmXs.%.6 a B                       ",
"                <.$XjXVXdXeXB.M.M.Z.A.A.g.g.f.f.f.7.7.r.z.z.9.t.fXjX.X*.a.i. .N '                       ",
"                $X<XaXaXzXNXeXZ.wXBXA.A.A.N.N.M.V.V.c.b.c.v.v.n.$X~.o.N 6  .z.i.%.                      ",
"                dX@X*XiXgXjXyXBXwXS.S.S.A.5.m.V.C.b.b.&X&Xb.v.5XqXu./ X.; ' a.a.s.                      ",
"                ,X_.*XyXuXjXhXdXwXwXwXwXA.5.m.Z.-X8X7XyXuXyXeX5X5Xx.D. .5 4 B ' %.%.                    ",
"                *X$XaXuXaXzXVXdX5XwX6XB.M.m.A.&X,X,X*X<XuXfX0XC.wX3XV. .; # d B ' [                     ",
"                $X1XfX<XsXzXjXfX0X5XZ.B.M.B.4X_._.1X1XpXpXiX8X&Xb.z.f.A : q q g y ]                     ",
"                '.fXgX8X-X8X8XaXuX9XC.B.B.c.&Xx.+X1XlXaX8X&X7Xb.v.k.f.A 0 g q q 7 B 4                   ",
"                ).=XiX4Xv.&X=XpX<X=XV.M.M.g.V.C.5X8XuXiX*X&X&X%X&XZ.M.c s g f h 7 [ s t                 ",
"                q.l.+X4Xz.b.=XsX;X#Xh.m.A.BXwXeXhXjXxXzXuX*X-X*X&X4XV.=...[ D f 7 G O.s X.              ",
"                <.>./ #Xn.n.uXvX>X+Xf.h.wXeXeXyXzXxXcXxXxX2X;X!.!.=Xc.M.x./.$.D w B S i [               ",
"                ~.0._ <.+Xu.[.vX>X'.w.x.5X4X4XgXcXxXzXxXxX1X;X2X<X8XV.M.5X3Xo.D d O.X.w S X.            ",
"              o.].'.0.^._.~.^.>X{.K.<.#X=X&XyXxXZXcXxXgXpX1X2X2X@X&XM.m.C.uXK.G D G ] % t N             ",
"              w.#.'.'.'.[.[.^.[.{.W ( #XiX8XaXlXAXAXCXxXpX1XlX<X<X=XB.M.V.3X'.K.H f f 8 0 '             ",
"              ~.) K.^.'._.^.].tXtX) ^ ).,XsXsXlXbXbXcXcXcXcXcXpX-X9XwXB.c.x.`./.~ g F.k 7 N D           ",
"              `.(.<.(.$X'.#.K.OXtX) _ <.$XpXlXlXlXcXbXAXAXAXbXlXuXeXC.C.6XZ.p.w.W ~ k k g M S           ",
"              t.y.#Xl.k.l.p./.'.:XG.^ w.#XiX<XpX2X>XbXAXAXbXZXxXfXdXC.c.c.D.7.R ) ^.I.k g ! X.B         ",
"              `.y.+X+X4.k.v.`.'.K.) ) ) E.+X+X@X_.;XvXcXbXcXCXZXVX0XwXc.d.f.r.9.K.G.I.k r ! R i         ",
"              ).).u.>.3.1.n.n.#XK.~ ) <.E.W.!.<X:X;X@X{.iXzXzXVXVXeX6Xc.h.h.k.t.].G.^.R.H o.Q 1 ;       ",
"              tXu.,./ / R r.n.l.XXK.0.(.!.@X1X1X1X2X_._.:XzXgXhXNX9Xc.h.h.c.r.0.G.R.F.k ~ ~ U 1 #       ",
"            >XlX&X;.9.,.Y -.,.1.`./.XX$X-X1XlX2X1X1X[.{.>XzXjXNXNXb.h.h.V.c.x.x.K.F.F.9 D A A t O %     ",
"            lXvX%Xr.r.Y Y <.1.<.`.].H./.,X<X<X<X<X>X;X>XsXfXdXdXdXC.b.&Xv.b.6Xs.Q G H r Z  .z * X #     ",
"            [.bX!.2.<._ 2.).+X+X(.`.H.K $X<X<X-X-X;XE.E.(.&X5XeX5X9X0X=X&X4X3X-.T 6.8.R U a.N & X O     ",
"            K.vX>XW.M w ~ (.+X+X+X3.^ #.'.`.-X&X&XiX<X:X#Xb.eXdXdX8X&X=X&X9X#X-.c 8.j.=.x ' X.a $ O     ",
"            K ) /.>.M = e ( u.2.1.3.1.l.#XqX7X&X&XuXaX<X=X*XuXfXqX#X%X7X7X9X#XR T  . .6.A 5 ] ] 0 y     ",
"            P c P P m M M S ( q.t.+X%X&X%Xl.%X%X&X0XyX*X%X-XyXyX+X@X8X7X7XqXR n z P P P z O : s y h     ",
"             .=.T z N D e = 7 w S 0.).y.2.2.l.&X4X8XfXaXqX5XZ.dX*X*X-X7X#X/ n e 1 X.T P 6 o o % j h     ",
"            T 6.x 3 u m < - O @ = w K <.2.4.4.%X8X,X,X=X5XS.6X7XuX-X8X$X_ Z Z m 2 U w.Y n @ O O ;       ",
"            ,.=.l z J R P l 2 3 3 6 I ^ 2.<.( ~.:XlXyXB.V.V.6XyXpX<X*X_ b C U I v Q w.,.S $ o . ;       ",
"            p.7.c T 7.d.d.d.7.E c C n v ( 0.F F P.zX0XS.B.v.7XuX*X2._ b v K / ( n ! w.w.^ - X o ;       ",
"             Xp.R ,.$XqX&Xb.k.1.,.R Y L L <._ _ ^.,X4XeXdX0X-X@X<._ Z v v K 0.^ S ! ^ (.Q - X o :       ",
"            +.e.9.p.dXgX-X-X!.l.2.<.u.u.>.,.<.E.<.+X%Xb.%X%X+Xq.Y <.G F M K q.(.! G ! t.! - o O :       ",
"            ..U C L 0.).$X*X@X@XW.2.W.2.2.(.E.Q.;X<.1.k.4.%X,.v K ~ M v M M ~ W.~ M ! t.Z % O $ #       ",
"            S A z n I L (.$X+X(.W._.).<.<.<.) Q.{.F v L Y / b e K F e w e v M ~ ~ v ! #.p O # %         ",
"              S A n n V ^ t.).)._._.E.2._.@XW.^.{.F e Z L K e Z ) M v w w i M ! ! S X.G # X # #         ",
"              ' A A z > z C @.'.~.(.q.,XxX2X_.G.G.W Z U R C v >.) b M w e i i B M u G a @ o # $         ",
"                P m n 6 2 2 n L Q ( L ^.cXtXG.W W ! L P / L Y =Xy.<.,./ _ V w * # # 5 + . # # $         ",
"                S 1 z 6 6 6 z C A C l V K.G.F F ( R Y E E E +X+X4.1.1.>.R v < @ . # $ . . ; #           ",
"                  6 6 6 = 5 w N m n z m n m Z J -.:.-.R R 3.2.l.4.1.1.R I u @ . + # + + . ;             ",
"                  p < = - = < < u u 6 m 2 1 m E ;.;.E E R l.1.4.n.l.,.Y Z < . X + ; 4 + .               ",
"                    # o @ & < p p u < < > > c 8.j.;.-.R ,.t.u.1.k.4.-.E C 2 & , p 5 5 #                 ",
"                      @ o @ < t p < & & = x j.j.j.j.:.E V V I r.4.1.-.E E R / 0.'                       ",
"                        $ @ * ; 5 = @ @ $ A f.g.j.j.=.b 1 - , / r.1.;.1.r.r.9.(                         ",
"                            ; 4 5 t & $ @ > P 7.=.:.-.C 1 - & b -.r.i.r.9.@.P                           ",
"                                  a 5 5 5 & > z 2 S $.C v m N S @.+.w.@.                                ",
"                                            & < & 5 1 S %.$.S p                                         ",
"                                                                                                        ",
"                                                                                                        ",
"                                                                                                        "
};
