/* XPM */
static char *_339b8545166489ed832a08ec8e2a0a7QwtrbBG2zSPf9eGr[] = {
/* columns rows colors chars-per-pixel */
"64 64 253 2 ",
"   c None",
".  c #0C0800",
"X  c #130C03",
"o  c #181206",
"O  c #10111B",
"+  c #251805",
"@  c #331E04",
"#  c #201D1A",
"$  c #3A2608",
"%  c #3E310D",
"&  c #352A17",
"*  c #332813",
"=  c #08132C",
"-  c #181C2D",
";  c #091635",
":  c #0B1A3C",
">  c #091737",
",  c #131D3B",
"<  c #121A34",
"1  c #080D23",
"2  c #231F2E",
"3  c #17213C",
"4  c #27272A",
"5  c #3B342A",
"6  c #262736",
"7  c #353638",
"8  c #372B2C",
"9  c #452C04",
"0  c #4A2E06",
"q  c #4A3409",
"w  c #573908",
"e  c #452D12",
"r  c #483516",
"t  c #533D12",
"y  c #573A16",
"u  c #483A26",
"i  c #493A36",
"p  c #533B2A",
"a  c #5C4511",
"s  c #574618",
"d  c #5B410C",
"f  c #65440B",
"g  c #6A4609",
"h  c #74490A",
"j  c #77540A",
"k  c #634A13",
"l  c #6C4C11",
"z  c #644914",
"x  c #774D13",
"c  c #6D5519",
"v  c #6B5417",
"b  c #745314",
"n  c #785917",
"m  c #7A631C",
"M  c #584726",
"N  c #594839",
"B  c #4D4430",
"V  c #665526",
"C  c #765426",
"Z  c #6C5134",
"A  c #75652A",
"S  c #0C1E44",
"D  c #081B46",
"F  c #111D45",
"G  c #0D214D",
"H  c #0D2144",
"J  c #132143",
"K  c #13244C",
"L  c #1B294D",
"P  c #192649",
"I  c #0D2358",
"U  c #122453",
"Y  c #1A2A52",
"T  c #1A2C5A",
"R  c #142956",
"E  c #1C315D",
"W  c #242B49",
"Q  c #28334A",
"!  c #373445",
"~  c #273459",
"^  c #343956",
"/  c #252953",
"(  c #132C64",
")  c #172D66",
"_  c #1C3368",
"`  c #1C3674",
"'  c #263569",
"]  c #353A66",
"[  c #253A77",
"{  c #30306D",
"}  c #2C1C4E",
"|  c #413C4E",
" . c #4D337A",
".. c #3E4254",
"X. c #2C4277",
"o. c #364477",
"O. c #34436B",
"+. c #424357",
"@. c #514A4C",
"#. c #775545",
"$. c #6E574F",
"%. c #76695C",
"&. c #474A66",
"*. c #444B7A",
"=. c #575579",
"-. c #50546E",
";. c #66676D",
":. c #68587A",
">. c #86570B",
",. c #845D14",
"<. c #875915",
"1. c #965913",
"2. c #98530A",
"3. c #A6580D",
"4. c #82621A",
"5. c #8A6517",
"6. c #976917",
"7. c #977619",
"8. c #8F6D14",
"9. c #A76614",
"0. c #A77719",
"q. c #B67918",
"w. c #B36211",
"e. c #856625",
"r. c #976B25",
"t. c #997724",
"y. c #896835",
"u. c #947132",
"i. c #A77825",
"p. c #B57B26",
"a. c #A87835",
"s. c #AE7229",
"d. c #D5751B",
"f. c #916E4F",
"g. c #A87B44",
"h. c #8D6E66",
"j. c #9B6E54",
"k. c #9A801C",
"l. c #A78419",
"z. c #B98918",
"x. c #BE931C",
"c. c #9B842D",
"v. c #A88825",
"b. c #B78726",
"n. c #B89627",
"m. c #AE8E36",
"M. c #C9891D",
"N. c #D68C1C",
"B. c #C59919",
"V. c #D2951B",
"C. c #EC8E19",
"Z. c #D4AD1C",
"A. c #C88A26",
"S. c #C69A26",
"D. c #D59D29",
"F. c #D09132",
"G. c #C9A42A",
"H. c #D5A729",
"J. c #C9A434",
"K. c #D8B132",
"L. c #E8A829",
"P. c #E3B828",
"I. c #EBB532",
"U. c #ED8721",
"Y. c #DAD33C",
"T. c #E8C72B",
"R. c #EED529",
"E. c #E8C736",
"W. c #F7CA36",
"Q. c #ECDA37",
"!. c #F8D63A",
"~. c #F3CA2B",
"^. c #F6E839",
"/. c #F8EA30",
"(. c #ECCF1B",
"). c #908755",
"_. c #B98A48",
"`. c #B69947",
"'. c #B98955",
"]. c #AD8A55",
"[. c #938774",
"{. c #B78878",
"}. c #BBA35D",
"|. c #C58A48",
" X c #CD9B4E",
".X c #D2AA46",
"XX c #C79563",
"oX c #D7AE62",
"OX c #ECD44A",
"+X c #F9EB45",
"@X c #FDF642",
"#X c #F5EC57",
"$X c #F7F25B",
"%X c #E9C972",
"&X c #303B87",
"*X c #1F3D84",
"=X c #563B8D",
"-X c #5234AD",
";X c #6735BD",
":X c #294385",
">X c #374988",
",X c #3B4B95",
"<X c #385394",
"1X c #2F4F96",
"2X c #3955A7",
"3X c #2A4AA2",
"4X c #3963AD",
"5X c #465385",
"6X c #565783",
"7X c #414995",
"8X c #545B94",
"9X c #47518D",
"0X c #586699",
"qX c #586B88",
"wX c #676798",
"eX c #657298",
"rX c #76729A",
"tX c #4D5AAB",
"yX c #6A4BAE",
"uX c #4965AA",
"iX c #5468B6",
"pX c #576FAF",
"aX c #7074AF",
"sX c #754D93",
"dX c #395DC8",
"fX c #3762CC",
"gX c #774DCE",
"hX c #5667C7",
"jX c #637DCB",
"kX c #6C72D1",
"lX c #536DDE",
"zX c #916EB8",
"xX c #8E69E4",
"cX c #7B8AB8",
"vX c #60CBBB",
"bX c #748ACF",
"nX c #7882EB",
"mX c #7191EA",
"MX c #948C8A",
"NX c #B78E97",
"BX c #8F87B3",
"VX c #A6A3A0",
"CX c #CBA2AE",
"ZX c #CD948A",
"AX c #B5CFA3",
"SX c #E0D6AF",
"DX c #8F95C7",
"FX c #94A0C7",
"GX c #8A92EC",
"HX c #8FA7ED",
"JX c #A8B6E6",
"KX c #A192C5",
"LX c #B1C3EF",
/* pixels */
"      b.p.p.  ].                                                                                                                ",
"      i.b.a.a.y.].                                                                                                              ",
"  7.i.6.r.j.a.<.y.g.            w 8.                                                                                            ",
"  h 6.b.p.1.g.F.9.g.'.          $ j K.                                                                                          ",
"j g g 1.p.q.M.j._.r._.[.uX4X1X1XO.A G.J.                                                                                        ",
"j g <.>.6.M.A.z.'.'.9.g.).[.qX:X1XV l.n.J.                                                                                      ",
"g f h 1.3.2.q.L.q.g.|.1.y.a.%.<X] Z l.b.S.G.                    *X3XfXfXpX                                                      ",
"g w h 2.9.w.3.9.A.A.u.a.1.v.i.u.i.t.t.F.D.H.P.$X              X.o.>X=.[.bXMX                                                    ",
"h 0 w >.1.3.w.3.2.q.s.'.p. Xr.9.A.q.A. XI. XI.+XK.S.J.m.J.    Z b.;.N z.MXMX                                                    ",
"x f 0 w f x 1.2.2.q.p.|.F.J.XX}. Xs.q. XZXg. XOXH.D.n.z.G.k.$.M >.-. .r e.n.i.                                                  ",
"y f f w w y u.r.1.b.|.|.A.`.;.-.CX|.d..Xj.{.|.OX~.W.K.!.Y.n @.3 6 { zX-X} C z.                                                  ",
"w 0 w f g z ,.<.6.6.e.<.C A B 7 MXd.SXSX X'.h.'.!.+XE.^.Y.v .._ [ _ -XgX;XyX`.J.J.m.l.0.n.                                      ",
"  0 @ 0 w f d w f j 6.x h <.x C q.C.oXSX|.h.p {.%X^.E.@XY.m 7 J ` &X;XgXyXsXOXT.K.K.J.v.x.                                      ",
"  g 0 @ @ $ $ @ 9 w <.<.<.>.x 1.d.C.U.d.h.| C {.%X^.I.^.OXc 7 = F &XgXgXiXf.R.+XT.E.I.K.x.I.                                    ",
"    g 0 @ @ @ @ + 0 x x 1.2.2.1.U.d.d.j.8 #.MXf.I.I.H.W.^.c u = 1 { gXxXxXXX/.^.^.+XW.W.H.R.                                    ",
"                + @ r z x <.s.'.CX|.y.N e h.CX`.L.L.b.D.W.4.M < K } =X;XzX.X/.^./.@X+X+XZ.R.                                    ",
"                    % t @.n ,.).vX[.#.Z y.$.CXOXT.N.i.s.L.n.& 1 ; P V `..XI./.+X/.@X^.^.z.K.      m.`.                          ",
"                      $ $ 0 x x k f.@.y.NXh.XXI.R.A.p.0.A.A.s * # & b.W.I.K.^.+X/.!.W.G.0.MXmXcXf.G.J.K.                X.<X    ",
"                          @ q y w #.N Z NX]. XW.^.V.A.t.p.i.4.5.l i.I.N.i.H.OX+XI.L.F.x.`.cXbXzXH.S.k.l.v.          cXO.K '     ",
"                            e e % M h.N $.>.v.H.^.P.N.b.t.n <.7.4.m.b.6.t.N.OX~.C.N.0.m.cXmXmX).B.5.j j j 8.c.%.-.O.: : : ' <X  ",
"                                q #.=.~ 8 g 8.0.Q.Q.V.A.t.v 5.6.n r.r.7.0.H.#XL.N.b.0.[.pXlXbXu.>.g 5.5.8.e.;.o.) K F K : H E 8X",
"                                  ! E E 4 9 j 4.Z.^.Z.q.v.t.5.4.c e.i.b.d.OXOXM.0.q.A X.eXiX8Xn q 9 a b m VXbXuXY K { < : > L o.",
"                                  ^ -.Q 4 q j l 7.R.Q.q.i.v.n.n.t.v.A.N.P.#XS.6.0.n , D Y ' | j $ @ % % % ;.cXcXo.{ 9X' > > ~ 0X",
"                                  ..~ Y Q * q k g l.(.l.,.5.t.p.b.A.M.H.#XE.6.6.<.3 > S K ' u f o o o X o 6 ;.o.:X7X[ ' > : L 9X",
"                                  ^ K K Q L # d d d m j b ,.e.<.6.q.K.#XQ.0.>.m             % w X . . X X 1 6 O.T [       L *.  ",
"                                i K K : H L 3 # d d d j b n ,.<.>.q.Q.T.7.m n A             + w + . . . X X 1 ] /         L     ",
"                                v 6 H , R R E H # d h g l n c b b 4.0.5.b b p                                                   ",
"                              c k.m u P R R _ ` U 6 s g j n l k z f f d t Z                                                     ",
"                              % s k.k.V 7 3 E ( G U 6 d d j b l f w t | *.                                                      ",
"                              % % s k.k.m A N ~ R Y B a w s ! ~ ] ~ >X8X                                                        ",
"                            v s d q l v.8.v m v B M v d a B E I [ 2XkX                                                          ",
"                          c k c k g g 5.n.v.m a m 7.l.8.V Q I [ 7XkX                                                            ",
"                        s a k l j >.1.>.v e.8.n j x./.Z.m A N -.8XzX                                                            ",
"                        s t w f h >.6.7.<.y.V y q 8.(.B.n v v m ).                                                              ",
"                      a a v k f g >.S.Z.e.N y @.7 5 a l v k.k.c.m.                                                              ",
"                    a v c c n n ,.q.Z.m.] ' @.-.*.o.O.% % d Z $.$.                                                              ",
"                      s s k j m 5.q.y.=.,X' 5X*.O.>X5XB i -.tXjXcXrX%.                                                          ",
"                        3 3 5 V Z 7 o.rXkX&X) ] ~ X.uXtX=.6XtXGXmXbXcX                                                          ",
"                      T R ( ' 5X=.' 5XrXkXkXY F K [ :X' ] :.6XKXGXmXbXFX                                                        ",
"                      _ ( ` :XeXzX[ 8XwXmXxX{ ; ; ; ; S I / ] wXKXmXHXFX                                                        ",
"                      T I ) <XaXpXX.0X0XkXGX    : > > D D D K >XBXDXHXFXJX                                                      ",
"                    -.Y I ( [ 4X4XX.0XtXnXHX    > > : H G H G [ qXBXmXFXDX                                                      ",
"              A qX*.+.K G I ` *X3X5X8XhXkX      , > > : D G G ( :XuXjXBXBX                                                      ",
"            c.$.4XX...J G I ( ) X.eX<XdXnX    W 3 G : > : H G I ) [ 0XaXJX                                                      ",
"            t.$.<X[ O...Q W W &.eXzX[ hXGX    ! , 6 i : > : D G G K O.0XLX                                                      ",
"          B.x.t.O.) ( E Q Q X.uXpXaX[ hX      | 6 e h r 3 < < = > 6 ] 8XJX                                                      ",
"          8.x.n.M U I I H ( <X4XuXeX&X        i 6 r w g * ; < 4 7 Q Y 7XGX                                                      ",
"          M m B.7.5 G U U G G _ pXrX          i 6 & + j w O = , 3 H L tX                                                        ",
"          ^ M 5.x.7.u : H > > K               6 - 3 2 & g 0 # 1 = , |                                                           ",
"        ..~ 6 s 8.n.k.V - S { &.              2 = J F , 2 y e o # 8                                                             ",
"        s Q G 4 r v l.l.5.p i $.              - = > , U ' >X6X                                                                  ",
"      c v ..I I Q * q n 7.7.r.                - > > , T &XhX                                                                    ",
"      c 5.+.I X._ F # 8 % %                   2 < G T ) 7XiX                                                                    ",
"      q s Y I :X[ ` &XaX                        < J ( ' =X                                                                      ",
"    +.8 Q ) ` iXtX2XiXBX                                                                                                        ",
"    ~ R [ ` X.eXuXuXjX                                                                                                          ",
"  ! F T X.K G ` [ *X2XpX                                                                                                        ",
"  3 , W L G ` 3X*X` 3X4X                                                                                                        ",
"    6 W ~ ) :X1X` { &X2X4X                                                                                                      ",
"    7 W ~ _ [ ] ] [ *.o.[ [                                                                                                     ",
"    @.W W U Y ^ ^ ^ ^ ~ L '                                                                                                     ",
"      ! , , ; , W P W L L T                                                                                                     ",
"      6 < , , W / W / / L                                                                                                       ",
"        = < , J J J P                                                                                                           "
};
