/* XPM */
static char *_ee10c116928463eb52ffd99dbb0ba85eOPI6BPrSpB50dqW[] = {
/* columns rows colors chars-per-pixel */
"64 64 210 2 ",
"   c None",
".  c #0E0F09",
"X  c #0E1209",
"o  c #14160B",
"O  c #1A160D",
"+  c #161B0B",
"@  c #1B1C0E",
"#  c #1C1D11",
"$  c #151611",
"%  c #211E0F",
"&  c #221E12",
"*  c #2A1F13",
"=  c #16230B",
"-  c #1C230E",
";  c #1C2B0E",
":  c #172B0D",
">  c #1F310F",
",  c #1E2211",
"<  c #1F2B10",
"1  c #1F3010",
"2  c #21240F",
"3  c #222B0F",
"4  c #23310F",
"5  c #232413",
"6  c #292415",
"7  c #242B13",
"8  c #2A2C16",
"9  c #232319",
"0  c #29261A",
"q  c #262919",
"w  c #2C2C1A",
"e  c #312C1C",
"r  c #243212",
"t  c #2B3315",
"y  c #2D3A15",
"u  c #2D331A",
"i  c #2D3A1A",
"p  c #26321B",
"a  c #313617",
"s  c #323C16",
"d  c #32341B",
"f  c #343B1C",
"g  c #3A3C1E",
"h  c #38331F",
"j  c #2C2D23",
"k  c #272D20",
"l  c #322E22",
"z  c #2F3722",
"x  c #2F3A23",
"c  c #353422",
"v  c #3A3424",
"b  c #363B21",
"n  c #3B3C23",
"m  c #3C3C2A",
"M  c #3A372A",
"N  c #433C2C",
"B  c #4B3E2D",
"V  c #413B27",
"C  c #443D35",
"Z  c #334116",
"A  c #36421C",
"S  c #3A441D",
"D  c #3C4A1D",
"F  c #3A4C15",
"G  c #3F5115",
"H  c #3B4323",
"J  c #3D4B22",
"K  c #3D432A",
"L  c #3D492C",
"P  c #354225",
"I  c #3B4631",
"U  c #3B4B34",
"Y  c #414A1F",
"T  c #42541D",
"R  c #4B5B1D",
"E  c #4F611E",
"W  c #637C1E",
"Q  c #414525",
"!  c #424C24",
"~  c #43452B",
"^  c #48442D",
"/  c #444B2B",
"(  c #494C2D",
")  c #455224",
"_  c #4A5525",
"`  c #4B5B24",
"'  c #455229",
"]  c #4A542C",
"[  c #4D592C",
"{  c #465C2D",
"}  c #515E25",
"|  c #51522F",
" . c #525E2E",
".. c #414231",
"X. c #494532",
"o. c #454D31",
"O. c #4D4C33",
"+. c #454D3C",
"@. c #4A4C3B",
"#. c #524738",
"$. c #4C5333",
"%. c #4E5A31",
"&. c #4C5139",
"*. c #475132",
"=. c #525434",
"-. c #535D33",
";. c #53543B",
":. c #545C3B",
">. c #5A5B3C",
",. c #5A5E34",
"<. c #4D612A",
"1. c #536325",
"2. c #54632D",
"3. c #5D6C2D",
"4. c #586A27",
"5. c #5C7322",
"6. c #456031",
"7. c #546233",
"8. c #5B6435",
"9. c #5C6932",
"0. c #5B633C",
"q. c #5C6A3A",
"w. c #55673B",
"e. c #5F723C",
"r. c #616C27",
"t. c #61712A",
"y. c #67792A",
"u. c #646C3C",
"i. c #616E36",
"p. c #637432",
"a. c #6B7B34",
"s. c #63733D",
"d. c #6A7B3B",
"f. c #687535",
"g. c #747D35",
"h. c #4C5241",
"j. c #545444",
"k. c #5A5343",
"l. c #575D41",
"z. c #555649",
"x. c #5C5848",
"c. c #594E4A",
"v. c #63584A",
"b. c #675B53",
"n. c #5C6443",
"m. c #5E674A",
"M. c #636345",
"N. c #636D45",
"B. c #62644B",
"V. c #696A4B",
"C. c #656C4D",
"Z. c #657243",
"A. c #697543",
"S. c #6B7A44",
"D. c #6C744C",
"F. c #6C794B",
"G. c #657048",
"H. c #737C4C",
"J. c #72774C",
"K. c #646C51",
"L. c #6A6A58",
"P. c #6B7354",
"I. c #777D5E",
"U. c #737755",
"Y. c #6E7561",
"T. c #717166",
"R. c #7A736D",
"E. c #74786C",
"W. c #787E72",
"Q. c #737B71",
"!. c #716963",
"~. c #817B77",
"^. c #827E7E",
"/. c #6E881E",
"(. c #6B8125",
"). c #72892B",
"_. c #7A9525",
"`. c #6F813B",
"'. c #74833B",
"]. c #7C8A3F",
"[. c #778538",
"{. c #748441",
"}. c #7C8B43",
"|. c #74824A",
" X c #79894D",
".X c #6E8454",
"XX c #7C8B51",
"oX c #788158",
"OX c #7E9155",
"+X c #788372",
"@X c #818D3F",
"#X c #818F45",
"$X c #839148",
"%X c #869345",
"&X c #839459",
"*X c #8A827B",
"=X c #8D9B7F",
"-X c #90A263",
";X c #878B84",
":X c #938D89",
">X c #8B9487",
",X c #959787",
"<X c #8B9490",
"1X c #929794",
"2X c #A29C9B",
"3X c #9FA09C",
"4X c #999FA0",
"5X c #A6A7A7",
"6X c #A6AFB0",
"7X c #B1B1B6",
/* pixels */
"                                                    .X.XF.                                                                      ",
"                                                &X-X&XOX XF.m.          R.:X5X                                                  ",
"                                                &XOXF.G.D.M.v.v...^.7X3X*X,X5X6X=X                                              ",
"                                               X X|.D.B.v.v.v.b.~.2X5X:X*X1X<X,XoXF.J.  ,X                                      ",
"                                            u. X|.0.V.P.v.v.#.!.*X*XL.B.Q.<XK.Z.D.Z.L.1X>XY.H.XX                                ",
"                                            s.XXH.J.M.0.;.C c.~.:X~.m.~ m I %.%.u.;.T.;X+Xm.B.D.V.                              ",
"                                          J 0.|.u.9.-.( O.x.R.;X1X~.V.n.K z ' -.( X.h.h...h.&.:.Y.U.oX                          ",
"                                          _ d.u. .-.0.;.~ #.T.4X;X9.n.U.:.p -.A.O.l j 9 < 9 M ..m.F.S..XG.D.P.M.                ",
"                                         .u.S.,.! [ q./ m N j.Q.E.:.&.k.@.P 7._ H j 0 # , I j.>.>.Z.P.M.0.n.0.B.&X              ",
"                            }.        0.S.|.A.=./ ( ~ ~ v C ;.m c w q 9 , b ! ! c l 9 # , ( >.-.K.W.+XK.>.:.*.@.P.P.            ",
"                          {.'.@X%X    V.D.d.,.Q 7.-.^ ^ B N j k 9 9 9 9 9 w u 8 e k # # w ;.0.n m.;Xm.0.F.N.&.m.k.G.s.          ",
"                          a.y.g.[.  d.S.N.i.n V ! [ ^ N M v # & # 9 , 9 q q w * 0 0 k j m X.K b ;.j./ &.-.] m z.^ :.8.Z.        ",
"                        '.'.      a.7.i.8.Y V ~ u ! H v V * $ # # , , k j 8 c w e v v m V v M m L J K P 8 w b q w m ' 0.        ",
"                        }.'.t.    r.i.2.) a g n 9 S / d 0 0 $ $ # , # < q 9 d 6 e n d d l N m K J Q ] H q q u q w q P ,.H.      ",
"                }.$X  '.$X'.f.      p.| w d d w 8 r g q v N l , $ # # 9 & 9 w 6 0 f V 6 * M M K J ( P f q j p y 8 w b K u.      ",
"          _._._.[.}.  [.#Xi.f.#X].'.8.Y d a d d u 5 Q =.^ O.k.~ k $ q 9 $ 9 6 w e h n 5 # & j b b b d w 8 d i i w c v n _       ",
"            /./.).y.  %Xa.4.    g.u.[ D f S J f i q ) | | O.0.$.=.c 8 u 7 9 w 8 6 f w 9 $ & 0 p 7 , , p 9 w 8 r q 6 6 i !       ",
"    }.      ).(.(.).}.#Xp.1.g.r. .{ ) ) D A i p t L ' =.( ,.-.$.;.;.$.] ) J ! i 8 n u 8 * l 8 6 , 9 7 7 , q 7 8 7 , 5 u J       ",
"  {.d.p.3.[.].y.W (.t.'.2.9.[.u.( S ! ) ! d 8 w i 7.8.' -.q.J / >.>.0. .-.[ ] X.~ n J H C m 5 # O 5 5 y 8 6 w t q # # 8 g       ",
"  '.`.}.`.a.d.p.5.y.t.t.! _ i.m.o.J J T S d u g S  .%.$./ J J o.=.] ~ b J $.k.l.%.(  .] ^ m v 8 $ - 7 8 8 w 8 t 7 # w q t A     ",
"    }.}.'.'.`.3.5.5.1.} S S Q o.! H d D g a d Y ! f n / / Q H M.=.H @.z.:.$.$.q.s.s.[ -.~ %.*.V # - 7 7 q h w 5 , 9 d 5 7 s     ",
"      ].a.4.3.4.1.E T ` Y ) n ) 3._ S ! S 8 S ! n Q ( f ! Q =.,./ h z.T.>.n o.,.' ] ~ 7.%.,.~ c q 8 , , 5 d u 9 @ O 6 8 7       ",
"          1.<.1.R G F T D ] T 4._ Y _ _ f Q ] H H ] [ d g d f H f m L.L.C @.;.Q f H ~ / 7.u.~ w 8 w 9 + + @ 5 q 9 O 5 5 2 Q     ",
"              T T F y Z f S <.! 8 f ` _ J ] ] / ] Q 8 8 h 6 8 u q m z.m e z.;.d 8 d b f d ' [ n q q w , 5 7 7 @ # O % 7 7 !     ",
"              ` T Z < t i A ! f b <.2._ S f f / H n 8 8 b e 8 5 q q l 0 u K c 8 8 v b ) f ) ! h u q w 7 8 g i 5 o O , 7 7       ",
"                F t < < t f A H 7.s.2._ a 8 s f e w 8 i g ~ 8 7 5 - & O # 6 8 q t d n Q ' S u q 8 t 8 5 q d f 6 o 7 q r r       ",
"                D Z 7 < p w f i { 9.7.) a 8 5 - a 6 2 ! b H 6 O @ O 5 # & 5 & 5 t H # O t u m u 5 7 7 - 8 y S u o @ 7 y i       ",
"                } J K c q f Q d ] d.e.D ^ Q 5 @ - 5 5 f , @ , & O O & & # & O # & d O O # A h 5 - 5 5 5 u f / f $ o , t D       ",
"                ) g ;.~ H ! ) f e.S.2.A Q ~ 5 @ 2 2 % % O O 2 & O O O & & 5 % 8 O O O 5 6 y i 9 - 7 - - 5 t H f , O - i D u.    ",
"                ) / =.y b / A ' Z.7.) f 5 w 7 & 5 O % % O 5 % 5 5 @ O O 5 5 + q @ O q q 5 2 q 7 , 2 @ O - 3 t n 9 , $ i J 9.    ",
"                ! &./ 8 f S d 7.S.w.J a w u 8 q 6 O @ @ @ 2 @ O # O O @ O 2 o % O 5 r q 6 5 O + - @ @ @ + + q u , j k 7 A  .    ",
"                ' &.f r f ! Q q.%.L S f &.K 6 , 7 2 - O @ + + @ 6 # @ - @ @ O & % 5 5 5 - , O @ # - - - O O 7 j # j j 8 Z [ 2.  ",
"              w.*.^ f r S  .] [ d d S s o.h 5 5 7 5 & - - - - O % O # 5 - @ O 5 6 8 $ O - ; @ O , < < , @ O , w & # # < i _ 7.  ",
"              ] o.P S S f ! ' ! 7 8 D S y w 8 8 5 @ @ @ % 5 q 6 5 @ @ @ - - @ % # O O O @ 3 < @ < r < , - # , 6 & $ X , i J 0.  ",
"              / K v Q H d c g S w e A A 8 u a 8 2 O @ & & @ 5 8 5 @ @ - - @ O - @ # 9 & - ; < < 1 i 1 + @ @ 9 6 & $ + 8 A D _   ",
"            / g w v f / :.d d f t d d 8 8 d 8 8 @ @ @ % & @ % 5 6 5 - ; , ; O + @ O l e 7 r ; : : 1 r = @ - , 5 & # 5 u Z J ) 2.",
"            H f q f d b Z.b H i i t t d f d 5 % % O O O % @ 2 3 6 w - ; 7 r - = - @ 5 8 7 4 : < < < 1 - @ # q @ & & O d p A A J ",
"            d u i i 8 t [ ! ! t f e d b 6 6 % % O o O o @ = 3 3 8 f ; ; ; 4 < , ; - O @ - 7 : : : : 1 + @ , 6 # 5 8 @ p > Z A %.",
"            f d e 8 8 A ' $._ g f 7 d d 6 % % O O o o X @ % 2 2 q b 7 7 2 ; - = ; , @ @ - - = : < < r , # , < # 5 e O 3 < < f ) ",
"            f f 8 5 t _ q.P.} s 8 2 d 6 6 6 & @ + + o + + % 6 6 6 n 8 2 - , , - - , - @ @ ; ; : = < 8 , , , q # 5 6 , , + @ d   ",
"            S t 7 2 g ) [ w.T d t 5 f 6 & 5 6 5 5 + + 9 7 2 w w 8 e 5 - - 5 7 8 ; < , , - - ; = - 7 q 9 6 5 6 5 w 5 , , o ,     ",
"            f - 7 8 s } ! / S t 8 7 y @ @ 7 5 5 O , - b d r m e 6 q % - 2 , 7 r < r q 9 < + - = + < q 9 5 % 5 6 8 O + O X =     ",
"            u 5 6 8 D Y f A f y 5 7 8 o @ 3 % @ o @ , H f q H w 9 , 5 O - 5 3 r 1 q u r - X = @ = , q q # & 5 e 6 O X o o       ",
"            t 7 7 a Y s f A s y 7 5 2 + 2 @ @ o o O < y t 6 d d , 6 c O - - 4 - - < r > < - - O + 7 8 9 # , w 8 @ o < 8 @       ",
"            y 7 6 t S y 8 F Z s 7 7 - = 3 + + + @ % 3 7 5 % 6 8 5 w m , 7 2 ; = = ; ; : r r 7 - , 9 w , + , q , o @ 2 y y t     ",
"          J a 5 7 a a 7 7 D D y t r 2 - t - + @ @ @ 3 2 2 % 6 6 & 8 u 2 r ; ; + @ < ; : > r 7 + # 9 9 - O 9 # + . = 3 y Z Z y   ",
"          D r - 5 8 r 7 8 Z Z y 7 % - - i 3 + = o + O % @ @ * 6 6 6 0 8 r r ; + = ; ; : > ; @ @ @ , - @ 9 @ $ - # - 7 8 a n f   ",
"          ! 2 @ 2 6 7 5 t F a 8 2 O @ 5 i = = + o @ @ @ @ @ * 6 * * * 6 r ; ; = = - ; : : = # 9 @ , , - , @ < p x 7 - w w Q b   ",
"          J 7 7 8 6 7 3 8 s t t % O - 7 y - 3 @ @ % @ @ + = @ % 6 * & % ; 4 3 ; = = : : > + # @ @ @ o , - + , p P p 5 u b f f   ",
"          G Z Z 6 5 2 7 3 y t t 2 @ @ - 2 5 8 2 @ @ @ @ + + @ % * % * & - > > : = = = = = + o , @ o X 7 q < - p P p y u H H S   ",
"          ) D A r 5 2 r 4 a s a 2 @ @ % @ 5 a - O @ % 2 @ + @ % % & 6 % ; > > = = + + : = + - , + o X w u w 5 j z c H f u f     ",
"          $.{ J ' d 7 4 3 y y a 2 % 2 % @ 5 e 2 @ % % @ @ @ O % & & 6 6 ; > ; = = + X - 3 - < t q 9 r r b i z f A u %.7.Q       ",
"          ..z.%.A.' 8 3 3 y s s 2 % * 2 % O 6 8 2 @ @ % O @ @ 6 6 * * 6 - > ; : = + + > ; 7 8 t i 8 f i m L p q d d g Q         ",
"          C m %.N.8.f - 2 4 s S 2 % @ 2 6 5 w 6 2 2 % % O 5 2 6 6 6 * % - = ; + o X = 3 7 d J Z f H i i b P i u ~ /             ",
"          B.&.b w H d & 3 4 s F 7 2 2 a 8 3 8 6 7 2 2 2 @ + = 5 0 6 & & - 7 ; + X o 3 - - i A i J D A H H f S J                 ",
"            z.~ M m V V 6 3 t a 7 2 7 a t 2 7 d i 3 - - @ @ @ 5 * & O % @ 3 2 = - 3 3 = y f A g $.Z S D f g ~                   ",
"              h.+.h.+.X.j 5 r y 4 7 3 a 8 2 3 3 t 3 = @ @ , , 6 6 l w * % 7 y 8 y r y i f A S H ] S n f d u m                   ",
"              +.U I L L M 8 7 3 3 3 t 3 2 2 3 6 8 - - = - 5 8 e v h V v @ 7 f f 3 7 Z f 7 H A d 7.7.] _ S H ~                   ",
"                  K b b b n 8 @ - - 3 7 2 3 4 3 3 - - - @ , u g g t g i 8 w r f t q A f i D ) Q ! _ ` Q f !                     ",
"                        n c 8 @ - = 2 - = 3 4 4 4 3 ; 3 , 8 f y S h D y i f f F i d S a y J ! b Q D D                           ",
"                          H b d 8 8 6 $ + 2 4 y y y 3 4 - 8 7 t f c f y y f 8 r s n d p i H  .H                                 ",
"                              ! f d z & @ 2 4 4 r s t 5 6 d h y J A g b b c w i A [ J   e e                                     ",
"                                ~ H n ~ v h h d a h h d v Q f H ! 6.' $.=.m H ] D <.                                            ",
"                                      ( B B ^ ^ n B #.h b   n ) H 6.        ]                                                   "
};
